<svg width="22" height="22" viewBox="0 0 22 22" fill="none" xmlns="http://www.w3.org/2000/svg">
<g id="crm">
<path id="Vector" fill-rule="evenodd" clip-rule="evenodd" d="M10.9999 6.78803C8.2436 6.78803 6.00918 8.80642 6.00918 11.2962C6.00918 12.5413 6.567 13.6674 7.47093 14.4839C7.74936 14.7354 7.74936 15.1432 7.47093 15.3947C7.1925 15.6462 6.74108 15.6462 6.46265 15.3947C5.30224 14.3464 4.58325 12.8966 4.58325 11.2962C4.58325 8.09504 7.45609 5.5 10.9999 5.5C14.5437 5.5 17.4166 8.09504 17.4166 11.2962C17.4166 12.8966 16.6976 14.3464 15.5372 15.3947C15.2587 15.6462 14.8073 15.6462 14.5289 15.3947C14.2505 15.1432 14.2505 14.7354 14.5289 14.4839C15.4329 13.6674 15.9906 12.5413 15.9906 11.2962C15.9906 8.80642 13.7562 6.78803 10.9999 6.78803Z" fill="#1D84C7"/>
<path id="Vector_2" fill-rule="evenodd" clip-rule="evenodd" d="M11.0001 3.1667C6.20826 3.1667 2.32373 6.84623 2.32373 11.3852C2.32373 13.6548 3.29409 15.7085 4.86497 17.1965C5.1397 17.4567 5.1397 17.8786 4.86497 18.1388C4.59024 18.399 4.14482 18.399 3.87009 18.1388C2.04613 16.4112 0.916748 14.0225 0.916748 11.3852C0.916748 6.11019 5.43121 1.83398 11.0001 1.83398C16.5689 1.83398 21.0834 6.11019 21.0834 11.3852C21.0834 14.0225 19.954 16.4112 18.1301 18.1388C17.8553 18.399 17.41 18.399 17.1352 18.1388C16.8604 17.8786 16.8604 17.4567 17.1352 17.1965C18.7061 15.7085 19.6765 13.6548 19.6765 11.3852C19.6765 6.84623 15.7919 3.1667 11.0001 3.1667Z" fill="#1D84C7"/>
<path id="Vector_3" d="M9.45067 16.1035C10.1542 15.1669 10.506 14.6986 10.9404 14.6682C10.98 14.6653 11.0198 14.6653 11.0595 14.6682C11.4939 14.6986 11.8457 15.1669 12.5492 16.1035C14.08 18.1414 14.8455 19.1604 14.6311 20.0394C14.6127 20.1151 14.5899 20.1885 14.5628 20.2593C14.2473 21.0827 13.1648 21.0827 10.9999 21.0827C8.83501 21.0827 7.75255 21.0827 7.4371 20.2593C7.40999 20.1885 7.38711 20.1151 7.36869 20.0394C7.1544 19.1604 7.91982 18.1414 9.45067 16.1035Z" fill="#1D84C7"/>
<path id="Vector_4" d="M13.75 11C13.75 12.5188 12.5188 13.75 11 13.75C9.48123 13.75 8.25 12.5188 8.25 11C8.25 9.48123 9.48123 8.25 11 8.25C12.5188 8.25 13.75 9.48123 13.75 11Z" fill="#1D84C7"/>
</g>
</svg>
