<svg xmlns="http://www.w3.org/2000/svg" width="22" height="22" viewBox="0 0 22 22" fill="none">
    <path d="M7.80062 2.33301H7.80075H14.1992H14.1993C14.4205 2.33296 14.5566 2.33344 14.6698 2.34452C15.1723 2.39368 15.6112 2.59177 15.9426 2.87922H6.05729C6.38869 2.59177 6.82757 2.39368 7.33012 2.34452C7.44334 2.33344 7.57941 2.33296 7.80062 2.33301Z" fill="#1D84C7" stroke="#1D84C7"/>
    <path d="M4.12937 5.46037C3.87684 5.49355 3.62259 5.53677 3.37018 5.59458C3.84962 4.846 4.74009 4.3291 5.78468 4.3291H16.3732C17.4177 4.3291 18.3082 4.846 18.7877 5.59457C18.5352 5.53677 18.281 5.49354 18.0285 5.46036M4.12937 5.46037C3.94779 5.62997 3.79974 5.8257 3.69235 6.03734C3.86797 6.003 4.04563 5.97515 4.22429 5.95224M4.12937 5.46037C4.13982 5.459 4.15026 5.45764 4.1607 5.4563M4.12937 5.46037C4.53826 5.07847 5.11717 4.8291 5.78468 4.8291H16.3732C17.0407 4.8291 17.6196 5.07847 18.0285 5.46036M4.22429 5.95224C5.21463 5.82528 6.4662 5.82534 7.92006 5.82542M4.22429 5.95224L4.1607 5.4563M4.22429 5.95224L4.1607 5.4563M7.92006 5.82542H8.02863H14.2378M7.92006 5.82542L7.92008 5.32542H8.02863H14.2378L14.2378 5.82542M7.92006 5.82542V5.32542L7.89073 5.32542C6.46052 5.32533 5.18287 5.32526 4.1607 5.4563M14.2378 5.82542C15.6916 5.82534 16.9432 5.82528 17.9336 5.95224M14.2378 5.82542V5.32542L14.2671 5.32542C15.6973 5.32533 16.975 5.32526 17.9972 5.4563L17.9336 5.95224M17.9336 5.95224C18.1122 5.97514 18.2899 6.00299 18.4655 6.03733C18.3581 5.8257 18.2101 5.62996 18.0285 5.46036M17.9336 5.95224L17.9972 5.4563C18.0076 5.45764 18.018 5.45899 18.0285 5.46036" fill="#1D84C7" stroke="#1D84C7"/>
    <path d="M7.94961 7.41309H14.0502C15.6108 7.41309 16.7328 7.41406 17.5755 7.5221C18.4096 7.62903 18.8794 7.83143 19.1989 8.16403C19.5103 8.48832 19.6605 8.91684 19.6664 9.66131C19.6724 10.4256 19.5271 11.4287 19.3203 12.8427L18.9326 15.4932L19.4273 15.5656L18.9326 15.4932C18.7702 16.6032 18.6547 17.385 18.4836 17.9742C18.3177 18.5456 18.1149 18.8774 17.8121 19.1191C17.504 19.365 17.1006 19.5107 16.4371 19.5875C15.7632 19.6654 14.8875 19.6662 13.6625 19.6662H8.33733C7.11236 19.6662 6.23662 19.6654 5.56272 19.5875C4.89929 19.5107 4.49588 19.365 4.18778 19.1191C3.88498 18.8774 3.68215 18.5456 3.5162 17.9742C3.3451 17.3849 3.22963 16.6032 3.06726 15.4932L2.57266 15.5655L3.06726 15.4932L2.67954 12.8426C2.67954 12.8426 2.67954 12.8426 2.67954 12.8426C2.47271 11.4286 2.32741 10.4256 2.33343 9.66131C2.33929 8.91685 2.4895 8.48833 2.80098 8.16404C3.12044 7.83144 3.59024 7.62903 4.42431 7.5221C5.26704 7.41406 6.38905 7.41309 7.94961 7.41309ZM8.09714 15.3121C7.44997 15.3121 6.83325 15.7956 6.83325 16.4996C6.83325 17.2038 7.44992 17.6872 8.09714 17.6872H13.9027C14.5499 17.6872 15.1666 17.2037 15.1666 16.4996C15.1666 15.7956 14.5499 15.3121 13.9027 15.3121H8.09714Z" fill="#1D84C7" stroke="#1D84C7"/>
</svg>