<svg width="22" height="22" viewBox="0 0 22 22" fill="none" xmlns="http://www.w3.org/2000/svg">
<g id="home">
<path id="Vector" fill-rule="evenodd" clip-rule="evenodd" d="M2.30919 7.17052C1.83325 8.04001 1.83325 9.08887 1.83325 11.1866V12.5809C1.83325 16.1567 1.83325 17.9446 2.90719 19.0554C3.98114 20.1663 5.70962 20.1663 9.16658 20.1663H12.8333C16.2902 20.1663 18.0187 20.1663 19.0926 19.0554C20.1666 17.9446 20.1666 16.1567 20.1666 12.5809V11.1866C20.1666 9.08887 20.1666 8.04001 19.6907 7.17052C19.2147 6.30103 18.3453 5.76139 16.6063 4.68212L14.7729 3.54431C12.9346 2.40344 12.0155 1.83301 10.9999 1.83301C9.98434 1.83301 9.06519 2.40344 7.22695 3.54431L5.39361 4.68213C3.65462 5.76139 2.78512 6.30103 2.30919 7.17052ZM8.24992 15.8122C7.87023 15.8122 7.56242 16.12 7.56242 16.4997C7.56242 16.8794 7.87023 17.1872 8.24992 17.1872H13.7499C14.1296 17.1872 14.4374 16.8794 14.4374 16.4997C14.4374 16.12 14.1296 15.8122 13.7499 15.8122H8.24992Z" fill="#1D84C7"/>
</g>
</svg>
