<svg width="38" height="24" viewBox="0 0 38 24" fill="none" xmlns="http://www.w3.org/2000/svg">
<g id="Aadhar-Color 1" clip-path="url(#clip0_247_18556)">
<g id="layer1">
<g id="g10">
<g id="g12">
<path id="path14" d="M35.4577 9.30451C35.2468 9.61411 35.1728 9.9869 35.1091 10.3741C35.0459 10.8416 34.935 11.3014 34.7781 11.7461C34.548 12.3729 34.1504 12.9238 33.6291 13.3381C33.007 11.696 32.1064 10.1748 30.9673 8.8421C31.6023 8.60382 32.2893 8.54111 32.9566 8.6605C33.4263 8.74971 33.8861 8.8853 34.3293 9.0653C34.7049 9.2053 35.0678 9.3269 35.4497 9.3053L35.4577 9.30451Z" fill="#F8B517"/>
<path id="path16" d="M28.5018 2.48988C28.4787 2.85948 28.6076 3.21948 28.7469 3.58668C28.9298 4.02128 29.0682 4.47348 29.1599 4.93628C29.2817 5.59167 29.2169 6.26832 28.9729 6.88828C27.5981 5.76668 26.0443 4.8873 24.3774 4.28748C24.8087 3.76642 25.3729 3.37317 26.0095 3.14988C26.4646 2.99773 26.9334 2.89056 27.4092 2.82988C27.8071 2.76748 28.1859 2.69308 28.5018 2.48828V2.48988Z" fill="#F8B517"/>
<path id="path18" d="M34.3608 16.0117C35.025 16.1156 35.6492 16.3972 36.168 16.8269C36.5302 17.1347 36.8608 17.4783 37.1547 17.8525C37.4085 18.1573 37.664 18.4429 37.9998 18.6085H34.59C34.5885 17.7379 34.5118 16.869 34.3608 16.0117Z" fill="#F8B517"/>
<path id="path20" d="M9.50059 2.49023C9.81889 2.69663 10.1969 2.76943 10.5932 2.83103C11.069 2.89135 11.5379 2.99853 11.9929 3.15103C12.6297 3.37352 13.194 3.76659 13.6249 4.28783C11.958 4.88811 10.404 5.76744 9.02872 6.88863C8.78426 6.26876 8.71996 5.59182 8.84331 4.93663C8.93428 4.47364 9.07268 4.02137 9.2563 3.58703C9.39556 3.22383 9.52447 2.86383 9.50059 2.49023Z" fill="#F8B517"/>
<path id="path22" d="M2.54639 9.30577C2.92437 9.32897 3.292 9.20257 3.66759 9.06577C4.11227 8.88513 4.57367 8.74926 5.04503 8.66017C5.71239 8.54128 6.39924 8.60398 7.03439 8.84177C5.89633 10.1751 4.99706 11.6969 4.3766 13.3394C3.85488 12.9256 3.45742 12.3745 3.22834 11.7474C3.07086 11.3031 2.95966 10.8435 2.89651 10.3762C2.83365 9.98817 2.75726 9.61617 2.54798 9.30657L2.54639 9.30577Z" fill="#F8B517"/>
<path id="path24" d="M0 18.6085C0.338987 18.4429 0.594421 18.1573 0.844285 17.8525C1.13795 17.4786 1.46825 17.1353 1.83021 16.8277C2.34798 16.3972 2.9718 16.1153 3.63576 16.0117C3.48526 16.8691 3.40911 17.7379 3.40818 18.6085H0Z" fill="#F8B517"/>
<path id="path26" d="M19.0016 0C19.1703 0.332 19.4615 0.5832 19.7735 0.8272C20.1539 1.11261 20.5045 1.43614 20.8199 1.7928C21.259 2.29682 21.5485 2.91467 21.6554 3.576C19.8978 3.2808 18.1037 3.2808 16.3462 3.576C16.4538 2.91471 16.7435 2.29696 17.1825 1.7928C17.499 1.4386 17.8498 1.11701 18.2297 0.8328C18.5409 0.588 18.8329 0.3368 19.0016 0.008V0Z" fill="#F8B517"/>
</g>
<g id="g28">
<path id="path30" d="M15.8354 18.6156H17.0083C17.1619 17.646 16.8603 16.8988 15.8585 17.0772C15.0142 17.2276 14.1078 18.0492 13.5596 18.6156L15.1057 18.6092C15.2784 18.4988 15.615 18.3692 15.7542 18.466C15.7788 18.4825 15.799 18.5047 15.8132 18.5308C15.8273 18.5568 15.8349 18.586 15.8354 18.6156Z" fill="#D42837"/>
<path id="path32" d="M21.1058 18.6064H22.57C22.6392 16.9152 22.3583 15.1664 21.557 13.6552C20.8265 12.2792 19.6194 11.3448 18.0557 11.1184C15.7735 10.7888 13.4699 11.7392 11.5235 13.0888C9.4028 14.5632 7.65216 16.5648 6.12354 18.6088H8.0564C9.7959 16.1928 13.7993 12.5288 16.7435 12.5024C17.6817 12.4952 18.6358 12.7088 19.3417 13.3288C19.8525 13.776 20.4716 14.6432 20.4414 15.3472C20.4231 15.7608 20.0435 15.8928 19.6822 15.7608C19.4005 15.6568 19.2048 15.408 19.0043 15.14C18.6954 14.7166 18.277 14.3863 17.7945 14.185C17.3121 13.9838 16.784 13.9192 16.2677 13.9984C14.9603 14.1752 13.3401 15.1696 12.2953 16.0784C11.401 16.8597 10.5631 17.704 9.78794 18.6048H11.8664C12.6287 17.7048 13.4332 16.9376 14.4669 16.3056C14.8306 16.0801 15.2174 15.8947 15.6207 15.7528C16.6886 15.3928 17.7518 15.484 18.2236 16.7864C18.4098 17.2984 18.4345 17.7464 18.3828 18.5712V18.604H19.7952V18.5624C19.7852 18.1621 19.7958 17.7616 19.8271 17.3624C19.8629 16.9776 19.9862 16.5784 20.3546 16.5352C21.1313 16.3752 21.0939 18.0672 21.109 18.6096L21.1058 18.6064Z" fill="#D42837"/>
<path id="path34" d="M24.1112 18.6071H25.5889C25.6597 17.0375 25.522 15.1775 25.004 13.5527C24.9035 13.2363 24.7858 12.9257 24.6515 12.6223C24.3323 11.9255 23.9144 11.2788 23.4109 10.7023C22.8425 10.0373 22.1752 9.46468 21.4327 9.00468C21.2095 8.86762 20.9795 8.74212 20.7436 8.62868C20.5054 8.51474 20.2609 8.41431 20.0115 8.32788C17.1381 7.32948 14.232 8.03988 11.7947 9.33828C11.3172 9.59108 10.8628 9.86708 10.4228 10.1559C9.98274 10.4447 9.57771 10.7487 9.18302 11.0583C8.61387 11.5101 8.07429 11.9983 7.56766 12.5199C7.45625 12.6367 7.34405 12.7559 7.23583 12.8767C6.94618 13.1967 6.49658 13.6495 6.63186 14.1167C6.7369 14.4871 7.22389 14.3783 7.39418 14.2503C7.67545 14.0901 7.94038 13.9025 8.18515 13.6903C8.51778 13.4151 8.8313 13.1191 9.15994 12.8399C10.3854 11.7822 11.7589 10.9115 13.2365 10.2559C13.5342 10.1279 13.8315 10.0127 14.1286 9.91028C14.4246 9.80708 14.7174 9.72068 15.0095 9.64708C17.5423 9.00148 20.3051 9.41988 22.0717 11.4471C23.7722 13.3999 24.0825 16.0127 24.1088 18.6095L24.1112 18.6071ZM5.80906 16.3991C5.98482 16.2304 6.14787 16.0489 6.29685 15.8559C6.53557 15.5639 6.55706 15.2807 6.46396 15.0759C6.42939 15.001 6.37854 14.9348 6.31515 14.8823C6.25336 14.8321 6.18095 14.7968 6.10349 14.7791C5.91171 14.7359 5.68174 14.8031 5.48758 15.0351C5.26636 15.2983 4.9592 15.7463 4.90032 16.1447C4.88844 16.2152 4.88603 16.2871 4.89316 16.3583C4.89962 16.4234 4.91853 16.4867 4.94886 16.5447C4.97222 16.5895 5.00752 16.6268 5.05082 16.6525C5.09411 16.6782 5.14367 16.6913 5.19395 16.6903C5.21883 16.6927 5.24387 16.6927 5.26875 16.6903C5.29722 16.6879 5.32544 16.6831 5.3531 16.6759C5.52586 16.6237 5.6827 16.5285 5.80906 16.3991Z" fill="#D42837"/>
<path id="path36" d="M27.798 18.6078H27.8139C27.9296 18.61 28.0439 18.5816 28.1453 18.5254C28.2467 18.4693 28.3316 18.3873 28.3916 18.2878C28.4253 18.2333 28.452 18.1747 28.4712 18.1134C28.4927 18.0383 28.5061 17.9611 28.511 17.883V17.8654C28.628 13.8534 27.3731 10.531 25.2389 8.27424C24.4204 7.40187 23.4542 6.68268 22.3853 6.15024H22.3766C20.5738 5.26652 18.5656 4.89315 16.5677 5.07024C15.7908 5.13466 15.0221 5.27588 14.2727 5.49184C12.2189 6.08864 10.3115 7.26704 8.75344 8.81504C8.45345 9.11904 8.16459 9.43904 7.89006 9.75904C7.75372 9.91904 7.6211 10.0846 7.49219 10.2558C8.56441 9.34045 9.73254 8.5451 10.976 7.88384C11.2513 7.73877 11.5282 7.60331 11.8067 7.47744C12.0852 7.35157 12.3672 7.23371 12.6526 7.12384C13.6856 6.72399 14.7651 6.45812 15.865 6.33264C16.9357 6.21679 18.0169 6.24369 19.0806 6.41264C19.8345 6.52521 20.573 6.72438 21.2816 7.00624C21.4137 7.05957 21.5429 7.11664 21.6692 7.17744C21.7957 7.23824 21.9167 7.29984 22.0376 7.36704C24.4248 8.64704 26.0816 11.271 26.8121 14.2358C27.0991 15.4006 27.2411 16.5967 27.2346 17.7966V17.8302C27.2466 18.1502 27.3588 18.4206 27.5529 18.5414C27.5885 18.5645 27.6274 18.5817 27.6683 18.5926C27.712 18.605 27.7574 18.6107 27.8028 18.6094L27.798 18.6078Z" fill="#D42837"/>
<path id="path38" d="M23.531 5.23438C29.4251 7.14398 33.4142 12.528 33.4396 18.608H30.6004C30.789 13.1624 28.362 8.24638 23.5278 5.23438H23.531Z" fill="#F8B517"/>
</g>
<path id="path40" d="M6.87284 22.9811H5.72458L5.4405 23.9611H4.52539L5.73651 20.2083H6.89751L8.14285 23.9611H7.18795L6.87284 22.9811ZM5.85588 22.3459H6.73597C6.50627 21.6131 6.3564 21.1104 6.28637 20.8379H6.27523L6.09301 21.5499L5.85428 22.3459H5.85588ZM11.0903 22.9811H9.9468L9.66192 23.9611H8.74682L9.95714 20.2083H11.1189L12.3635 23.9611H11.4094L11.0903 22.9811ZM10.0725 22.3459H10.9542C10.7234 21.6131 10.5738 21.1104 10.5054 20.8379H10.4943L10.3128 21.5499L10.0741 22.3459H10.0725ZM13.2332 23.9459V20.2587C13.6366 20.2021 14.0435 20.1753 14.4507 20.1787C15.2682 20.1787 15.8544 20.3462 16.2093 20.6811C16.5642 21.016 16.7401 21.4536 16.7369 21.9939C16.7369 22.6339 16.535 23.1283 16.1313 23.4771C15.7276 23.8259 15.1032 24.0003 14.2581 24.0003C13.9157 24.0024 13.5734 23.9837 13.2332 23.9443V23.9459ZM14.1149 20.8723V23.3163C14.2204 23.3308 14.3268 23.3364 14.4332 23.3331C14.8701 23.3331 15.2099 23.2203 15.4494 22.9947C15.6889 22.7691 15.8083 22.4459 15.8083 22.0251C15.8083 21.6395 15.7032 21.3451 15.4804 21.1451C15.2576 20.9451 14.9465 20.8427 14.5303 20.8427C14.3887 20.8404 14.2473 20.8514 14.1077 20.8755L14.1149 20.8723ZM17.6846 20.2099H18.5663V21.6571H20.0727V20.2083H20.9535V23.9611H20.0727V22.4003H18.5663V23.9643H17.6846V20.2099ZM24.1485 22.9827H22.997L22.7129 23.9627H21.8034L23.0129 20.2083H24.1739L25.4193 23.9611H24.4699L24.1516 22.9811L24.1485 22.9827ZM23.1307 22.3475H24.0116C23.7808 21.6147 23.6312 21.112 23.5628 20.8395H23.554L23.3726 21.5515L23.1339 22.3475H23.1307ZM28.3659 22.9827H27.2145L26.9304 23.9627H26.0208L27.2312 20.2099H28.393L29.6375 23.9627H28.685L28.3667 22.9827H28.3659ZM27.3482 22.3475H28.2298C27.9985 21.6147 27.8489 21.112 27.781 20.8395H27.7715L27.5901 21.5515L27.3513 22.3475H27.3482ZM30.5081 23.9627V20.2587C30.9012 20.1989 31.2986 20.1721 31.6961 20.1787C32.2765 20.1787 32.6934 20.2723 32.947 20.4595C33.0717 20.5513 33.1718 20.6729 33.2382 20.8132C33.3046 20.9536 33.3352 21.1083 33.3274 21.2635C33.3289 21.4678 33.2616 21.6666 33.1364 21.8275C33.0101 21.9933 32.8371 22.1171 32.6399 22.1827V22.2043C32.8786 22.2923 33.051 22.5224 33.1571 22.8947C33.3523 23.5667 33.4584 23.9232 33.4754 23.9643H32.577C32.4558 23.6821 32.3654 23.3876 32.3072 23.0859C32.2804 22.9138 32.2075 22.7523 32.0964 22.6187C31.9734 22.5191 31.8167 22.4715 31.6595 22.4859H31.3858V23.9611L30.5081 23.9627ZM31.3778 20.8427V21.8763H31.7415C31.9263 21.8868 32.1093 21.8353 32.2619 21.7299C32.3229 21.6849 32.3721 21.6256 32.4053 21.5571C32.4384 21.4887 32.4545 21.4132 32.4521 21.3371C32.4561 21.264 32.4427 21.191 32.4129 21.1242C32.3832 21.0574 32.3379 20.9987 32.281 20.9531C32.1375 20.8549 31.9656 20.8076 31.7924 20.8187C31.6536 20.8132 31.5146 20.8226 31.3778 20.8467V20.8427Z" fill="#D42837"/>
</g>
</g>
</g>
<defs>
<clipPath id="clip0_247_18556">
<rect width="38" height="24" fill="white"/>
</clipPath>
</defs>
</svg>
