<svg width="20" height="20" viewBox="0 0 20 20" fill="none" xmlns="http://www.w3.org/2000/svg">
<g id="call 1">
<path id="Vector" d="M11.6665 1.66602C11.6665 1.66602 13.4998 1.83268 15.8332 4.16602C18.1665 6.49935 18.3332 8.33268 18.3332 8.33268" stroke="#1D84C7" stroke-width="1.5" stroke-linecap="round"/>
<path id="Vector_2" d="M11.8394 4.61328C11.8394 4.61328 12.6644 4.84899 13.9018 6.08642C15.1392 7.32386 15.3749 8.14882 15.3749 8.14882" stroke="#1D84C7" stroke-width="1.5" stroke-linecap="round"/>
<path id="Vector_3" d="M8.36483 4.43079L8.90566 5.3999C9.39375 6.27447 9.19783 7.42175 8.42908 8.19048C8.42908 8.19048 7.49673 9.12298 9.18725 10.8136C10.8772 12.5036 11.8103 11.5717 11.8103 11.5717C12.5791 10.803 13.7263 10.6071 14.6009 11.0952L15.57 11.636C16.8907 12.373 17.0466 14.225 15.8858 15.3858C15.1883 16.0833 14.3338 16.6261 13.3892 16.6618C11.7992 16.7222 9.09875 16.3197 6.38991 13.6109C3.68111 10.9021 3.27867 8.20167 3.33896 6.61156C3.37476 5.66698 3.9175 4.81251 4.61501 4.11501C5.7758 2.95422 7.62781 3.11018 8.36483 4.43079Z" stroke="#1D84C7" stroke-width="1.5" stroke-linecap="round"/>
</g>
</svg>
