<svg width="23" height="23" viewBox="0 0 23 23" fill="none" xmlns="http://www.w3.org/2000/svg">
<g id="Case Minimalistic 1">
<path id="Vector" d="M2.00162 7.86914C1.85156 8.89105 1.85156 10.2298 1.85156 12.0357C1.85156 15.5272 1.85156 17.273 2.93624 18.3576C4.02093 19.4423 5.76669 19.4423 9.25823 19.4423H12.9616C16.4531 19.4423 18.1989 19.4423 19.2835 18.3576C20.3682 17.273 20.3682 15.5272 20.3682 12.0357C20.3682 10.23 20.3682 8.89121 20.2182 7.86933C18.1104 9.23939 16.7594 10.1132 15.5077 10.6513V11.1099C15.5077 11.4934 15.1968 11.8043 14.8133 11.8043C14.4349 11.8043 14.1272 11.5016 14.1191 11.1251C12.1468 11.6451 10.0731 11.6451 8.10085 11.1251C8.0928 11.5016 7.78507 11.8043 7.40665 11.8043C7.02315 11.8043 6.71227 11.4934 6.71227 11.1099V10.6512C5.4605 10.1131 4.10949 9.23926 2.00162 7.86914Z" fill="#1D84C7"/>
<path id="Vector_2" fill-rule="evenodd" clip-rule="evenodd" d="M9.79669 2.08301H9.77781C9.67263 2.08299 9.59088 2.08298 9.51348 2.08767C8.5317 2.14713 7.67197 2.76678 7.3051 3.67939C7.27602 3.75172 7.22816 3.89538 7.19403 3.99786L7.19044 4.00864C7.09498 4.2678 6.92262 4.49225 6.72308 4.65251C6.51248 4.65933 6.31133 4.66812 6.11905 4.67946C4.59702 4.76926 3.63113 5.01903 2.93643 5.71374C2.70991 5.94025 2.5307 6.1956 2.38892 6.48965C2.44222 6.50784 2.49416 6.53286 2.54354 6.56496C4.48806 7.82889 5.70978 8.61947 6.72493 9.12662C6.78645 8.8061 7.06836 8.56393 7.40683 8.56393C7.79032 8.56393 8.10121 8.87481 8.10121 9.25831V9.68225C10.0634 10.2744 12.1568 10.2744 14.1191 9.68225V9.25831C14.1191 8.87481 14.43 8.56393 14.8135 8.56393C15.152 8.56393 15.4339 8.80613 15.4954 9.12669C16.5106 8.61953 17.7323 7.82894 19.6769 6.56496C19.7263 6.53292 19.7781 6.50793 19.8313 6.48974C19.6895 6.19565 19.5103 5.94027 19.2837 5.71374C18.5891 5.01903 17.6231 4.76926 16.1012 4.67946C15.9186 4.6687 15.728 4.66022 15.5291 4.65357C15.5165 4.64336 15.5039 4.63281 15.4913 4.62193C15.2685 4.4294 15.0942 4.1755 15.0064 3.93734L15.0035 3.9286C14.9703 3.82891 14.9444 3.75132 14.9154 3.67939C14.5486 2.76678 13.6889 2.14713 12.7071 2.08767C12.6297 2.08298 12.5479 2.08299 12.4428 2.08301H9.79669ZM13.7187 4.45841L13.7145 4.44847L13.71 4.43727L13.7058 4.42621L13.7024 4.41701L13.7007 4.41237L13.6969 4.40105L13.6933 4.39059L13.6914 4.38479L13.6888 4.37707L13.6868 4.37055L13.6851 4.36528C13.6487 4.25601 13.6375 4.22357 13.627 4.19738C13.4602 3.78257 13.0694 3.50091 12.6232 3.47388C12.5933 3.47207 12.5567 3.47176 12.4239 3.47176H9.79669C9.66393 3.47176 9.62727 3.47207 9.59745 3.47388C9.15124 3.50091 8.76051 3.78248 8.5937 4.19719L8.59126 4.20365L8.58388 4.22395C8.57774 4.24116 8.57026 4.26269 8.56163 4.28794C8.54634 4.33273 8.52915 4.38413 8.51174 4.43635L8.51004 4.44182L8.50798 4.44834L8.50544 4.45605L8.50351 4.46185L8.49996 4.47232L8.49604 4.48365L8.49439 4.48829L8.49102 4.4975L8.48678 4.50857L8.48227 4.51979L8.47841 4.52897L8.47781 4.53032C8.46491 4.56351 8.45125 4.59663 8.43686 4.62964C8.69944 4.62905 8.9731 4.62905 9.25841 4.62905H12.9617C13.2501 4.62905 13.5266 4.62905 13.7918 4.62966C13.7654 4.57309 13.741 4.51595 13.7187 4.45841Z" fill="#1D84C7"/>
</g>
</svg>
