<svg xmlns="http://www.w3.org/2000/svg" width="16" height="16" viewBox="0 0 16 16" fill="none">
    <g clip-path="url(#clip0_664_8668)">
        <path d="M9.15441 14.5138L9.51581 13.9033L8.65521 13.3939L8.29381 14.0045L9.15441 14.5138ZM6.48353 13.9033L6.84494 14.5138L7.70547 14.0045L7.34407 13.3939L6.48353 13.9033ZM8.29381 14.0045C8.16534 14.2215 7.83401 14.2215 7.70547 14.0045L6.84494 14.5138C7.36067 15.3851 8.63867 15.3851 9.15441 14.5138L8.29381 14.0045ZM6.99967 1.83398H8.99967V0.833985H6.99967V1.83398ZM14.1663 7.00065V7.66732H15.1663V7.00065H14.1663ZM1.83301 7.66732V7.00065H0.833008V7.66732H1.83301ZM0.833008 7.66732C0.833008 8.43705 0.832735 9.03938 0.865881 9.52518C0.899341 10.0155 0.968495 10.4236 1.1248 10.8009L2.04868 10.4183C1.95125 10.1831 1.89355 9.89652 1.86357 9.45712C1.83328 9.01325 1.83301 8.45072 1.83301 7.66732H0.833008ZM5.20134 12.1617C4.36438 12.1473 3.92583 12.0941 3.58207 11.9517L3.19939 12.8755C3.73603 13.0978 4.34726 13.1471 5.18411 13.1615L5.20134 12.1617ZM1.1248 10.8009C1.51386 11.7402 2.26011 12.4865 3.19939 12.8755L3.58207 11.9517C2.88782 11.6641 2.33625 11.1125 2.04868 10.4183L1.1248 10.8009ZM14.1663 7.66732C14.1663 8.45072 14.1661 9.01325 14.1358 9.45712C14.1058 9.89652 14.0481 10.1831 13.9507 10.4183L14.8745 10.8009C15.0309 10.4236 15.1 10.0155 15.1335 9.52518C15.1666 9.03938 15.1663 8.43705 15.1663 7.66732H14.1663ZM10.8152 13.1615C11.6521 13.1471 12.2633 13.0978 12.7999 12.8755L12.4173 11.9517C12.0735 12.0941 11.6349 12.1473 10.798 12.1617L10.8152 13.1615ZM13.9507 10.4183C13.6631 11.1125 13.1115 11.6641 12.4173 11.9517L12.7999 12.8755C13.7392 12.4865 14.4855 11.7402 14.8745 10.8009L13.9507 10.4183ZM8.99967 1.83398C10.1005 1.83398 10.891 1.83451 11.5076 1.89314C12.1168 1.95106 12.5044 2.06214 12.8134 2.2515L13.3359 1.39886C12.8433 1.09703 12.2846 0.962511 11.6023 0.897631C10.9273 0.833458 10.0811 0.833985 8.99967 0.833985V1.83398ZM15.1663 7.00065C15.1663 5.91919 15.1669 5.07298 15.1027 4.39806C15.0378 3.71569 14.9033 3.15695 14.6015 2.6644L13.7488 3.1869C13.9382 3.49592 14.0493 3.88354 14.1072 4.49271C14.1658 5.10932 14.1663 5.89982 14.1663 7.00065H15.1663ZM12.8134 2.2515C13.1947 2.48513 13.5152 2.80566 13.7488 3.1869L14.6015 2.6644C14.2854 2.14861 13.8517 1.71494 13.3359 1.39886L12.8134 2.2515ZM6.99967 0.833985C5.91821 0.833985 5.07201 0.833458 4.39708 0.897631C3.71471 0.962511 3.15597 1.09703 2.66343 1.39886L3.18593 2.2515C3.49495 2.06214 3.88257 1.95106 4.49173 1.89314C5.10834 1.83451 5.89885 1.83398 6.99967 1.83398V0.833985ZM1.83301 7.00065C1.83301 5.89982 1.83353 5.10932 1.89216 4.49271C1.95008 3.88354 2.06116 3.49592 2.25053 3.1869L1.39789 2.6644C1.09605 3.15695 0.961535 3.71569 0.896655 4.39806C0.832481 5.07298 0.833008 5.91919 0.833008 7.00065H1.83301ZM2.66343 1.39886C2.14763 1.71494 1.71397 2.14861 1.39789 2.6644L2.25053 3.1869C2.48415 2.80566 2.80469 2.48513 3.18593 2.2515L2.66343 1.39886ZM7.34407 13.3939C7.20874 13.1652 7.08994 12.9634 6.97441 12.8049C6.85267 12.6379 6.71314 12.4876 6.51958 12.375L6.01682 13.2395C6.04843 13.2578 6.09149 13.2913 6.16624 13.3939C6.24715 13.5049 6.33857 13.6583 6.48353 13.9033L7.34407 13.3939ZM5.18411 13.1615C5.47684 13.1666 5.66225 13.1703 5.80359 13.1859C5.93567 13.2006 5.98686 13.222 6.01682 13.2395L6.51958 12.375C6.32441 12.2615 6.12131 12.215 5.91365 12.192C5.71527 12.1701 5.47551 12.1665 5.20134 12.1617L5.18411 13.1615ZM9.51581 13.9033C9.66074 13.6583 9.75214 13.5049 9.83307 13.3939C9.90781 13.2913 9.95088 13.2578 9.98248 13.2395L9.47974 12.375C9.28621 12.4876 9.14661 12.6379 9.02494 12.8049C8.90941 12.9634 8.79061 13.1652 8.65521 13.3939L9.51581 13.9033ZM10.798 12.1617C10.5238 12.1665 10.2841 12.1701 10.0857 12.192C9.87801 12.215 9.67494 12.2615 9.47974 12.375L9.98248 13.2395C10.0125 13.222 10.0637 13.2006 10.1957 13.1859C10.3371 13.1703 10.5225 13.1666 10.8152 13.1615L10.798 12.1617Z" fill="#656565"/>
        <path d="M5.33301 6H10.6663" stroke="#656565" stroke-width="1.5" stroke-linecap="round"/>
        <path d="M5.33301 8.33398H8.99967" stroke="#656565" stroke-width="1.5" stroke-linecap="round"/>
    </g>
    <defs>
        <clipPath id="clip0_664_8668">
            <rect width="16" height="16" fill="white"/>
        </clipPath>
    </defs>
</svg>