<svg width="16" height="16" viewBox="0 0 16 16" fill="none" xmlns="http://www.w3.org/2000/svg">
<g id="copy line 1" clip-path="url(#clip0_247_18279)">
<path id="Vector" d="M13.5411 8.43218L13.8863 7.14425C14.2891 5.64088 14.4905 4.88918 14.3388 4.23867C14.2191 3.72503 13.9497 3.25844 13.5647 2.8979C13.0772 2.44128 12.3255 2.23987 10.8221 1.83704C9.31875 1.4342 8.56701 1.23279 7.91655 1.38447C7.40288 1.50423 6.93628 1.77362 6.57575 2.15856C6.18481 2.57597 5.98093 3.18703 5.67755 4.29772C5.62661 4.48425 5.57285 4.68487 5.51493 4.90103L5.1698 6.18907C4.76697 7.69245 4.56555 8.44412 4.71723 9.09465C4.83699 9.60832 5.10638 10.0749 5.49133 10.4354C5.97885 10.892 6.73055 11.0934 8.23395 11.4963C9.58901 11.8594 10.3333 12.0588 10.9434 11.9836C11.0102 11.9754 11.0753 11.9638 11.1395 11.9488C11.6531 11.8291 12.1197 11.5597 12.4803 11.1748C12.9369 10.6872 13.1383 9.93558 13.5411 8.43218Z" stroke="#1D84C7" stroke-width="1.5"/>
<path id="Vector_2" d="M10.9433 11.9827C10.8043 12.4084 10.5599 12.7935 10.2313 13.1013C9.74372 13.5579 8.99198 13.7593 7.48865 14.1621C5.98524 14.5649 5.23354 14.7663 4.58302 14.6147C4.06939 14.4949 3.6028 14.2255 3.24226 13.8406C2.78564 13.3531 2.58423 12.6014 2.1814 11.098L1.8363 9.81007C1.43347 8.30667 1.23206 7.555 1.38374 6.90447C1.5035 6.39085 1.77288 5.92425 2.15783 5.56371C2.64535 5.1071 3.39704 4.90569 4.90043 4.50285C5.18486 4.42664 5.44237 4.35764 5.67739 4.29688" stroke="#1D84C7" stroke-width="1.5"/>
</g>
<defs>
<clipPath id="clip0_247_18279">
<rect width="16" height="16" fill="white"/>
</clipPath>
</defs>
</svg>
