<svg width="18" height="18" viewBox="0 0 18 18" fill="none" xmlns="http://www.w3.org/2000/svg">
<g id="Crown 1">
<path id="Vector" d="M14.7654 10.5698L14.903 9.2913C14.9763 8.60918 15.0247 8.15872 14.9867 7.87492L15 7.875C15.6213 7.875 16.125 7.37132 16.125 6.75C16.125 6.12868 15.6213 5.625 15 5.625C14.3787 5.625 13.875 6.12868 13.875 6.75C13.875 7.03099 13.9781 7.28793 14.1484 7.4851C13.9038 7.63605 13.5842 7.9545 13.1029 8.43383C12.7322 8.80312 12.5468 8.98778 12.34 9.01643C12.2254 9.03225 12.1087 9.01597 12.0028 8.9694C11.8119 8.88525 11.6845 8.65702 11.4299 8.2005L10.0879 5.79405C9.93075 5.5124 9.79927 5.27668 9.68077 5.08699C10.167 4.8389 10.5 4.33333 10.5 3.75C10.5 2.92157 9.82845 2.25 9 2.25C8.17155 2.25 7.5 2.92157 7.5 3.75C7.5 4.33333 7.833 4.8389 8.31923 5.08699C8.20073 5.27669 8.06925 5.51238 7.91213 5.79405L6.57005 8.2005C6.31542 8.65702 6.18811 8.88525 5.99716 8.9694C5.89136 9.01597 5.7746 9.03225 5.66003 9.01643C5.45323 8.98778 5.26786 8.80312 4.89713 8.43383C4.4159 7.9545 4.09617 7.63605 3.85165 7.48509C4.02198 7.28793 4.125 7.03099 4.125 6.75C4.125 6.12868 3.62132 5.625 3 5.625C2.37868 5.625 1.875 6.12868 1.875 6.75C1.875 7.37132 2.37868 7.875 3 7.875L3.01328 7.87492C2.97527 8.15872 3.02371 8.60918 3.09709 9.2913L3.2346 10.5698C3.31093 11.2795 3.37441 11.9547 3.45215 12.5625H14.5478C14.6256 11.9547 14.6891 11.2795 14.7654 10.5698Z" fill="#1D84C7"/>
<path id="Vector_2" d="M8.18407 15.75H9.81592C11.9429 15.75 13.0063 15.75 13.7159 15.1149C14.0257 14.8376 14.2217 14.3379 14.3632 13.6875H3.63672C3.77824 14.3379 3.97435 14.8376 4.28406 15.1149C4.99363 15.75 6.0571 15.75 8.18407 15.75Z" fill="#1D84C7"/>
</g>
</svg>
