<svg xmlns="http://www.w3.org/2000/svg" width="36" height="36" viewBox="0 0 36 36" fill="none">
    <path d="M12.9375 19.6875C12.9375 19.0908 12.7004 18.5185 12.2785 18.0965C11.8565 17.6746 11.2842 17.4375 10.6875 17.4375H9L8.4375 16.3125H6.1875L6.79964 18.149C6.94897 18.597 7.23548 18.9867 7.61858 19.2628C8.00168 19.5389 8.46195 19.6875 8.93419 19.6875H9.5625L12.9375 28.6875H16.3125L12.9375 19.6875Z" fill="#F7CCA9"/>
    <path d="M31.5 14.0625V8.4375C31.5 6.64729 30.7888 4.9304 29.523 3.66453C28.2571 2.39866 26.5402 1.6875 24.75 1.6875C22.9598 1.6875 21.2429 2.39866 19.977 3.66453C18.7112 4.9304 18 6.64729 18 8.4375V14.0625C17.4033 14.0625 16.831 14.2996 16.409 14.7215C15.9871 15.1435 15.75 15.7158 15.75 16.3125V17.4375C15.75 18.0342 15.9871 18.6065 16.409 19.0285C16.831 19.4504 17.4033 19.6875 18 19.6875H31.5C32.0967 19.6875 32.669 19.4504 33.091 19.0285C33.5129 18.6065 33.75 18.0342 33.75 17.4375V16.3125C33.75 15.7158 33.5129 15.1435 33.091 14.7215C32.669 14.2996 32.0967 14.0625 31.5 14.0625Z" fill="#6C4336"/>
    <path d="M30.9375 18.5625H19.433C19.0048 18.5625 18.5854 18.6846 18.2242 18.9147C17.863 19.1447 17.575 19.473 17.3939 19.861L14.0625 26.4375L16.875 28.6875L19.6875 25.3125V34.3125H33.1875V20.8125C33.1875 20.2158 32.9504 19.6435 32.5285 19.2215C32.1065 18.7996 31.5342 18.5625 30.9375 18.5625Z" fill="#F59E20"/>
    <path d="M19.6875 25.875C19.5383 25.875 19.3952 25.8157 19.2898 25.7102C19.1843 25.6048 19.125 25.4617 19.125 25.3125V23.0625C19.125 22.9133 19.1843 22.7702 19.2898 22.6648C19.3952 22.5593 19.5383 22.5 19.6875 22.5C19.8367 22.5 19.9798 22.5593 20.0852 22.6648C20.1907 22.7702 20.25 22.9133 20.25 23.0625V25.3125C20.25 25.4617 20.1907 25.6048 20.0852 25.7102C19.9798 25.8157 19.8367 25.875 19.6875 25.875Z" fill="#F2B852"/>
    <path d="M28.6875 34.3125V23.0625C28.6875 22.9133 28.7468 22.7702 28.8523 22.6648C28.9577 22.5593 29.1008 22.5 29.25 22.5C29.3992 22.5 29.5423 22.5593 29.6477 22.6648C29.7532 22.7702 29.8125 22.9133 29.8125 23.0625V34.3125H28.6875Z" fill="#F2B852"/>
    <path d="M29.8125 27.5625H33.1875V34.3125H29.8125V27.5625Z" fill="#F7CCA9"/>
    <path d="M20.25 12.9375C19.6533 12.9375 19.081 12.7004 18.659 12.2785C18.2371 11.8565 18 11.2842 18 10.6875C18 10.0908 18.2371 9.51847 18.659 9.09651C19.081 8.67455 19.6533 8.4375 20.25 8.4375H20.8125V12.9375H20.25Z" fill="#EDC4A2"/>
    <path d="M29.25 8.4375C29.8467 8.4375 30.419 8.67455 30.841 9.09651C31.2629 9.51847 31.5 10.0908 31.5 10.6875C31.5 11.2842 31.2629 11.8565 30.841 12.2785C30.419 12.7004 29.8467 12.9375 29.25 12.9375H28.6875V8.4375H29.25Z" fill="#EDC4A2"/>
    <path d="M23.0625 15.1875H26.4375V18.5625C26.4375 18.8609 26.319 19.147 26.108 19.358C25.897 19.569 25.6109 19.6875 25.3125 19.6875H24.1875C23.8891 19.6875 23.603 19.569 23.392 19.358C23.181 19.147 23.0625 18.8609 23.0625 18.5625V15.1875Z" fill="#EDC4A2"/>
    <path d="M27 6.1875L20.25 8.4375V11.8125C20.25 13.006 20.7241 14.1506 21.568 14.9945C22.4119 15.8384 23.5565 16.3125 24.75 16.3125C25.9435 16.3125 27.0881 15.8384 27.932 14.9945C28.7759 14.1506 29.25 13.006 29.25 11.8125V8.4375L27 6.1875Z" fill="#F7CCA9"/>
    <path d="M16.3125 23.0625H6.1875L5.0625 34.3125H17.4375L16.3125 23.0625Z" fill="#066CAF"/>
    <path d="M13.5 23.0625H3.375L2.25 34.3125H14.625L13.5 23.0625Z" fill="#1D84C7"/>
    <path d="M6.86954 18.3323C6.80295 18.3813 6.74019 18.4354 6.68181 18.494C6.52464 18.6503 6.40003 18.8363 6.31519 19.0411C6.23034 19.2459 6.18695 19.4655 6.18751 19.6872V24.1872C6.18751 24.3364 6.12825 24.4794 6.02276 24.5849C5.91727 24.6904 5.77419 24.7497 5.62501 24.7497C5.47583 24.7497 5.33275 24.6904 5.22726 24.5849C5.12177 24.4794 5.06251 24.3364 5.06251 24.1872V19.6872C5.0615 19.3177 5.13375 18.9516 5.27507 18.6102C5.4164 18.2688 5.624 17.9588 5.88587 17.698C6.03526 17.5494 6.20055 17.4175 6.37876 17.305C6.41648 17.2809 6.45713 17.2618 6.4997 17.248L6.79993 18.1487C6.82103 18.2113 6.84423 18.2725 6.86954 18.3323Z" fill="#4F5659"/>
    <path d="M11.25 24.75C11.1008 24.75 10.9577 24.6907 10.8523 24.5852C10.7468 24.4798 10.6875 24.3367 10.6875 24.1875V19.6875C10.6876 19.4659 10.644 19.2464 10.5592 19.0416C10.4744 18.8369 10.3501 18.6508 10.1934 18.4941C10.0367 18.3374 9.85064 18.2131 9.64587 18.1283C9.44109 18.0435 9.22163 17.9999 9 18C8.85082 18 8.70774 17.9407 8.60225 17.8352C8.49676 17.7298 8.4375 17.5867 8.4375 17.4375C8.4375 17.2883 8.49676 17.1452 8.60225 17.0398C8.70774 16.9343 8.85082 16.875 9 16.875C9.36937 16.8749 9.73513 16.9476 10.0764 17.0889C10.4177 17.2302 10.7277 17.4374 10.9889 17.6986C11.2501 17.9598 11.4573 18.2698 11.5986 18.6111C11.7399 18.9524 11.8126 19.3181 11.8125 19.6875V24.1875C11.8125 24.3367 11.7532 24.4798 11.6477 24.5852C11.5423 24.6907 11.3992 24.75 11.25 24.75Z" fill="#4F5659"/>
</svg>