<svg width="22" height="27" viewBox="0 0 22 27" fill="none" xmlns="http://www.w3.org/2000/svg">
<path id="Vector" d="M8.79062 24.9956C10.025 26.0015 11.975 26.0015 13.2094 24.9956L19.7548 19.6623C20.393 19.1424 20.75 18.4238 20.75 17.6667C20.75 16.9095 20.393 16.191 19.7548 15.671C18.5204 14.6652 16.5705 14.6652 15.3361 15.671L14.2045 16.593V4C14.2045 2.34496 12.619 1.25 11 1.25C9.38104 1.25 7.79545 2.34496 7.79545 4V16.593L6.66392 15.671C5.42952 14.6652 3.47957 14.6652 2.24516 15.671C1.60704 16.191 1.25 16.9095 1.25 17.6667C1.25 18.4238 1.60704 19.1424 2.24517 19.6623L8.79062 24.9956Z" fill="#1B9346" stroke="white" stroke-width="1.5"/>
</svg>
