<svg width="20" height="20" viewBox="0 0 20 20" fill="none" xmlns="http://www.w3.org/2000/svg">
<g id="Pen 2 1">
<path id="Vector" d="M3.33325 18.334H16.6666" stroke="#262627" stroke-width="1.5" stroke-linecap="round"/>
<path id="Vector_2" d="M11.5733 3.05179L12.1913 2.43387C13.215 1.41007 14.8749 1.41007 15.8988 2.43387C16.9225 3.45767 16.9225 5.11758 15.8988 6.14138L15.2808 6.75931M11.5733 3.05179C11.5733 3.05179 11.6505 4.36487 12.8092 5.52347C13.9678 6.68207 15.2808 6.75931 15.2808 6.75931M11.5733 3.05179L5.89247 8.7326C5.50769 9.11735 5.3153 9.30977 5.14985 9.52193C4.95468 9.7721 4.78734 10.0428 4.65081 10.3293C4.53508 10.5722 4.44904 10.8303 4.27696 11.3466L3.54779 13.5341M15.2808 6.75931L9.6 12.4401C9.21525 12.8249 9.02284 13.0173 8.81067 13.1828C8.5605 13.3779 8.28971 13.5453 8.00324 13.6818C7.76039 13.7975 7.50227 13.8836 6.98604 14.0556L4.79854 14.7848M3.54779 13.5341L3.36955 14.0688C3.28487 14.3228 3.35099 14.6029 3.54034 14.7923C3.72969 14.9816 4.00977 15.0478 4.26381 14.963L4.79854 14.7848M3.54779 13.5341L4.79854 14.7848" stroke="#262627" stroke-width="1.5"/>
</g>
</svg>
