<svg width="35" height="22" viewBox="0 0 35 22" fill="none" xmlns="http://www.w3.org/2000/svg">
<g id="FSSAI 1">
<path id="Vector" fill-rule="evenodd" clip-rule="evenodd" d="M29.0235 7.34929L7.71998 7.35875H6.44727V8.08644L7.58251 8.09116L7.59138 8.09589L33.7862 8.09116L34.0788 7.34929C33.5999 7.34929 29.3339 7.3682 29.2496 7.33984C29.1609 7.34929 29.1255 7.3682 29.0235 7.34929ZM28.3938 10.5672C28.4381 10.5672 28.4869 10.5578 28.5268 10.5389C28.8594 10.4349 29.2807 10.3073 29.6221 10.3073C29.7773 10.3026 29.9326 10.364 30.0479 10.4727C30.3184 10.761 30.172 11.2807 30.1011 11.6918L29.4359 15.4012C29.3915 15.6469 29.3383 15.8926 29.3029 16.1383C29.2496 16.4785 29.2053 16.5967 29.2053 17.0031C29.2053 17.7355 29.6133 18.3498 30.2918 18.3498C30.917 18.3498 31.4048 18.104 31.9104 17.778C32.1454 17.6173 32.376 17.4472 32.5933 17.2629C32.6687 17.1968 33.0456 16.866 33.0633 16.8329L33.0766 16.2234C33.0146 16.2423 32.7884 16.4927 32.6997 16.5636C32.5711 16.6723 32.4514 16.7904 32.305 16.9038C32.0744 17.0787 31.2186 17.7024 30.9481 17.1732C30.8062 16.8944 30.8549 16.5163 30.917 16.2187C31.0057 15.8076 31.1299 15.1129 31.2053 14.7113C31.3294 14.0403 31.458 13.3882 31.5866 12.7172L31.7773 11.7296C31.866 11.328 31.9857 10.6381 32.0656 10.2223C32.0966 10.0522 32.1365 9.87732 32.1631 9.72139C32.1897 9.56545 32.3449 8.82358 32.3449 8.70545C32.305 8.71963 32.2651 8.7338 32.2208 8.74798L28.5712 9.986C28.4159 10.0333 28.4293 10.0049 28.4248 10.2081C28.4204 10.3215 28.3938 10.4633 28.3938 10.5672Z" fill="#EB6303"/>
<path id="Vector_2" fill-rule="evenodd" clip-rule="evenodd" d="M19.3423 15.4891C19.3423 16.1009 19.459 16.7308 19.8542 17.1115L19.8901 17.1432C20.6041 17.8094 21.6684 17.1795 22.2701 16.6855C22.6832 16.3366 23.0649 15.9514 23.4062 15.5299C23.478 15.4393 23.5409 15.3622 23.6083 15.2716C23.8463 14.9498 23.9495 14.7776 24.1696 14.4468C24.3043 14.2429 24.3627 14.1115 24.466 13.9347L24.5153 13.8667L24.4031 14.4649C24.3582 14.7006 24.0753 16.1009 24.0753 16.2822C24.0753 17.4196 24.8387 17.6145 25.7547 17.2474L26.0466 17.1115C26.1364 17.0571 26.2307 17.0163 26.3205 16.9574C26.5765 16.7943 26.819 16.6039 27.039 16.3955C27.1198 16.3139 27.5015 15.9242 27.5419 15.829L27.6318 15.2761C27.1917 15.693 26.9088 16.0873 26.3565 16.4363C26.1185 16.5858 25.5751 16.894 25.4224 16.4634C25.2742 16.0556 25.629 14.8819 25.7188 14.3471C25.7951 13.8985 25.9748 13.1507 26.0691 12.6794L26.2442 11.8456C26.2756 11.7142 26.3026 11.5737 26.3295 11.4377C26.352 11.3244 26.5855 10.2232 26.59 10.1734C26.4912 10.1734 26.3295 10.1462 26.2307 10.1416C25.7772 10.119 25.4539 10.0918 24.9689 10.0918C23.6801 10.0918 22.7236 10.3501 21.8121 11.0435L21.0666 11.6824C21.0083 11.7414 20.9589 11.7867 20.905 11.8501C20.8017 11.977 20.6849 12.0948 20.5862 12.2263C20.4335 12.4211 20.2898 12.6296 20.1596 12.8426C19.8901 13.2912 19.6791 13.7761 19.5354 14.2837C19.4141 14.6779 19.3513 15.0813 19.3423 15.4891ZM21.2777 16.3819C21.1026 16.3773 20.9409 16.2822 20.8556 16.1281C20.5278 15.5797 20.8376 14.3426 20.9993 13.7535C21.1295 13.3048 21.2957 12.8743 21.5022 12.4574C21.6549 12.1537 21.9737 11.5918 22.1938 11.3698C22.2656 11.2927 22.3419 11.2202 22.4273 11.1613C23.0065 10.7625 23.752 10.8169 24.4076 10.9483C24.5468 10.9755 24.9913 11.0843 25.0946 11.1341C25.0856 11.2293 24.8701 12.267 24.8566 12.3033C24.8297 12.3713 24.7938 12.4302 24.7668 12.4936C24.5872 12.9423 23.9855 13.9166 23.7071 14.2882L23.0874 15.0722C22.9167 15.2807 22.7371 15.4755 22.544 15.6659C22.315 15.8924 22.4407 15.8335 22.0905 16.0692C21.9198 16.187 21.5696 16.3819 21.2777 16.3819Z" fill="#202060"/>
<path id="Vector_3" fill-rule="evenodd" clip-rule="evenodd" d="M7.48812 8.54154L7.47952 8.53704L6.37925 8.53254V7.83967H7.61275C7.61275 7.75869 7.86633 6.35046 7.87922 6.27397C8.07263 5.34715 8.66145 4.50131 9.60699 4.37083C9.87346 4.33934 10.1442 4.36633 10.4021 4.45182C10.6815 4.5463 11.0038 4.73976 11.0167 4.74426C11.0597 4.71277 11.6657 4.09188 11.7516 4.0019C12.0439 3.69596 12.0525 3.76795 11.7473 3.71846C10.978 3.60148 9.98091 3.69596 9.25886 4.0019C8.92362 4.13688 8.60128 4.31684 8.30472 4.5283L8.00387 4.77126C7.96518 4.80725 7.9351 4.82525 7.90071 4.86124C7.57837 5.16718 7.29901 5.51811 7.07551 5.90054C7.02824 5.98153 6.98096 6.05801 6.94228 6.139C6.693 6.6429 6.68011 6.71939 6.52108 7.20979C6.491 7.29978 6.46091 7.41226 6.43942 7.50674C6.42653 7.56973 6.41793 7.60572 6.40504 7.66871C6.38785 7.7227 6.37925 7.77669 6.37495 7.83518H4.66438V8.54154H6.25031L6.12138 9.32439C6.0784 9.57635 6.03542 9.86429 5.98384 10.1207C5.79044 11.1331 5.64001 12.2713 5.4466 13.2746C5.34775 13.792 5.27039 14.3319 5.17584 14.8628C4.85349 16.6625 4.72885 18.8041 2.41657 18.4082C2.163 18.3632 1.9395 18.2867 1.69452 18.2237L0.920898 19.191C1.84495 19.2135 2.33061 19.416 3.30624 19.0516C3.95523 18.8041 4.52255 18.3722 4.94805 17.8008C5.08558 17.6163 5.15435 17.5128 5.28328 17.3149C5.53686 16.919 5.81623 16.2666 5.97525 15.8212C6.61134 14.026 6.86922 11.8349 7.23024 9.94977C7.26462 9.78331 7.46663 8.58653 7.48812 8.54154Z" fill="#202060"/>
<path id="Vector_4" fill-rule="evenodd" clip-rule="evenodd" d="M8.96361 12.2501C8.96361 12.4572 8.9981 12.6598 9.06276 12.8534C9.11018 13.0199 9.18777 13.1685 9.29554 13.2991C9.43348 13.4611 9.61884 13.7042 9.76109 13.8483C9.85593 13.9473 10.1146 14.276 10.2266 14.3975C10.6146 14.8342 10.9638 15.1853 10.9638 15.8336C10.9638 16.3513 10.4982 16.7385 10.0025 16.7385H9.79558C9.27398 16.7385 8.52823 16.3558 8.20493 16.1307L7.36865 17.0536C7.42469 17.0581 7.5066 17.1031 7.57126 17.1211C7.9506 17.2517 8.50668 17.4182 8.89895 17.4137C9.00672 17.4137 9.05414 17.4317 9.16621 17.4317C9.75678 17.4317 10.343 17.2787 10.8603 16.9816C10.9293 16.9455 10.9939 16.9005 11.0543 16.8555C11.938 16.2027 12.2656 15.0863 11.5974 14.1634C11.4336 13.9383 11.1491 13.6052 10.9724 13.3711L10.356 12.5833C10.1189 12.3042 9.93352 11.9845 9.93352 11.5749C9.93352 10.9536 10.5327 10.607 11.0672 10.607C11.4811 10.607 11.882 10.7105 12.0932 11.0617C12.2742 11.3588 12.1708 11.5749 12.1708 11.7729H12.5803L12.895 10.3414L12.6363 10.2468C12.5372 10.2153 12.4639 10.1973 12.3604 10.1748C11.2698 9.90468 9.8861 10.2963 9.2395 11.3138C9.06707 11.5884 8.96792 11.9125 8.96361 12.2501Z" fill="#202060"/>
<path id="Vector_5" fill-rule="evenodd" clip-rule="evenodd" d="M14.4902 11.9672C14.4902 12.2356 14.5204 12.3145 14.6026 12.5435C14.6329 12.6145 14.6631 12.6856 14.7064 12.7527C14.7799 12.8869 15.182 13.2658 15.3161 13.4079C15.3463 13.4395 15.3507 13.4553 15.3853 13.4868C15.4155 13.5145 15.4415 13.5421 15.4674 13.5697L16.0079 14.1302C16.0382 14.1578 16.0642 14.1776 16.0944 14.2091C16.4836 14.6315 16.7085 15.263 16.2069 15.6854C15.7528 16.0682 14.9528 15.9064 14.4599 15.7288C14.2653 15.6538 14.0707 15.5709 13.8891 15.4722C13.8372 15.4446 13.7637 15.3893 13.6988 15.3854L12.8945 16.1827C13.2232 16.3406 14.1053 16.5142 14.4902 16.5142C15.0566 16.5142 15.3074 16.5182 15.8566 16.3485C16.9247 16.0248 17.8155 15.0775 17.3787 14.0749C17.3139 13.9289 17.236 13.7908 17.1366 13.6644C16.9982 13.4987 16.6739 13.1553 16.5139 12.9777C16.3063 12.7408 16.0988 12.5237 15.8955 12.2869C15.7571 12.1251 15.7182 12.1132 15.6144 11.9238C15.4631 11.6435 15.3982 11.312 15.5669 11.0238C15.6231 10.9291 15.7009 10.8502 15.7961 10.787C16.3669 10.3568 17.7419 10.4634 17.7419 11.308C17.7376 11.3909 17.7247 11.4738 17.6944 11.5528H18.1225L18.4208 10.2976C18.2954 10.27 18.1398 10.2107 17.9192 10.1634C17.3571 10.041 16.6004 10.0765 16.0815 10.2621C15.9301 10.3173 15.8263 10.3568 15.688 10.4199C15.4415 10.5344 15.2209 10.6844 15.0307 10.866C14.728 11.1383 14.4945 11.537 14.4902 11.9672Z" fill="#202060"/>
<path id="Vector_6" fill-rule="evenodd" clip-rule="evenodd" d="M2.01373 19.1754H1.55689C1.32399 19.1754 1.14932 19.1326 0.920898 19.1326V19.2671H31.9411C31.9545 19.1937 32.1202 18.7044 32.165 18.5882C32.2009 18.5149 32.2233 18.4353 32.2367 18.3497H4.79954C3.94409 18.3497 4.47707 18.3314 3.63953 18.7534C3.17822 18.9919 2.54223 19.1754 2.01373 19.1754Z" fill="#007534"/>
<path id="Vector_7" fill-rule="evenodd" clip-rule="evenodd" d="M30.6979 6.59953C30.7195 6.67797 30.7496 6.72751 30.7626 6.79356C30.6721 6.81833 30.4911 7.0908 29.7975 7.19401C29.7286 7.2064 29.6554 7.21465 29.5821 7.21465C29.4572 7.21465 29.4744 7.21465 29.4744 7.33024C29.5735 7.35089 29.6123 7.33024 29.6941 7.33024C30.0173 7.27658 30.168 7.27658 30.4955 7.11144C30.6032 7.05778 30.7022 6.99172 30.797 6.91741C30.8961 6.83485 30.9995 6.87613 31.2321 6.83485C31.7965 6.7399 32.1799 6.41789 32.4513 6.02983C33.0028 5.23307 33.1578 4.07714 33.1578 2.75195H33.1277C33.1061 2.99139 32.6064 3.70146 32.3996 3.92439C32.3652 3.96155 32.3522 3.98632 32.3135 4.02347L31.5552 4.78721C31.4131 4.93583 31.2149 5.14224 31.0943 5.29499C30.9176 5.51379 30.7496 5.75736 30.6893 6.03808C30.6419 6.22386 30.6462 6.41789 30.6979 6.59953Z" fill="#007433"/>
<path id="Vector_8" fill-rule="evenodd" clip-rule="evenodd" d="M30.2974 6.67267C30.2712 6.65028 30.245 6.62788 30.2122 6.60548C29.917 6.40711 29.3464 6.36232 28.9397 6.5063C28.8872 6.5223 28.8413 6.54469 28.802 6.56709C28.638 6.65348 28.5527 6.73986 28.5527 6.90304C28.5527 7.03741 28.6708 7.127 28.8348 7.21019C29.189 7.38296 29.7662 7.38296 30.1203 7.20699C30.1335 7.20059 30.14 7.19739 30.1531 7.19099C30.2778 7.1206 30.3565 7.03421 30.3893 6.94143C30.4089 6.84864 30.3761 6.75586 30.2974 6.67267Z" fill="#803D10"/>
</g>
</svg>
