<svg width="20" height="20" viewBox="0 0 20 20" fill="none" xmlns="http://www.w3.org/2000/svg">
<path fill-rule="evenodd" clip-rule="evenodd" d="M6.05233 2.71494C6.15264 1.77396 6.94906 1.04102 7.91667 1.04102H12.0833C13.0509 1.04102 13.8473 1.77396 13.9477 2.71494C14.5837 2.72789 15.1335 2.76078 15.603 2.84702C16.2347 2.96305 16.7722 3.18408 17.2097 3.62152C17.7113 4.12312 17.9271 4.75468 18.0279 5.50477C18.125 6.22725 18.125 7.14585 18.125 8.28551V13.3769C18.125 14.5166 18.125 15.4352 18.0279 16.1577C17.9271 16.9078 17.7113 17.5394 17.2097 18.0409C16.7081 18.5425 16.0766 18.7583 15.3265 18.8591C14.604 18.9563 13.6854 18.9563 12.5458 18.9563H7.45428C6.31462 18.9563 5.39602 18.9563 4.67354 18.8591C3.92345 18.7583 3.29189 18.5425 2.79029 18.0409C2.28869 17.5394 2.07295 16.9078 1.9721 16.1577C1.87497 15.4352 1.87498 14.5166 1.875 13.3769V8.28551C1.87498 7.14585 1.87497 6.22725 1.9721 5.50477C2.07295 4.75468 2.28869 4.12312 2.79029 3.62152C3.22773 3.18408 3.76529 2.96305 4.39696 2.84702C4.86648 2.76078 5.41636 2.72789 6.05233 2.71494ZM6.05397 3.96529C5.45557 3.97807 4.99443 4.00819 4.62279 4.07646C4.15045 4.16322 3.87705 4.30253 3.67418 4.50541C3.44354 4.73604 3.29317 5.05986 3.21096 5.67133C3.12633 6.30079 3.125 7.13506 3.125 8.33123V13.3313C3.125 14.5274 3.12633 15.3617 3.21096 15.9911C3.29317 16.6026 3.44354 16.9264 3.67418 17.1571C3.90481 17.3877 4.22863 17.5381 4.8401 17.6203C5.46956 17.7049 6.30382 17.7063 7.5 17.7063H12.5C13.6962 17.7063 14.5304 17.7049 15.1599 17.6203C15.7714 17.5381 16.0952 17.3877 16.3258 17.1571C16.5565 16.9264 16.7068 16.6026 16.7891 15.9911C16.8737 15.3617 16.875 14.5274 16.875 13.3313V8.33123C16.875 7.13506 16.8737 6.30079 16.7891 5.67133C16.7068 5.05986 16.5565 4.73604 16.3258 4.50541C16.1229 4.30253 15.8496 4.16322 15.3772 4.07646C15.0056 4.00819 14.5444 3.97807 13.946 3.96529C13.8389 4.89912 13.0458 5.62435 12.0833 5.62435H7.91667C6.95417 5.62435 6.16105 4.89912 6.05397 3.96529ZM7.91667 2.29102C7.57149 2.29102 7.29167 2.57084 7.29167 2.91602V3.74935C7.29167 4.09452 7.57149 4.37435 7.91667 4.37435H12.0833C12.4285 4.37435 12.7083 4.09452 12.7083 3.74935V2.91602C12.7083 2.57084 12.4285 2.29102 12.0833 2.29102H7.91667ZM12.9569 8.7396C13.1924 8.99193 13.1788 9.38743 12.9264 9.62293L9.355 12.9563C9.11492 13.1803 8.74225 13.1803 8.50208 12.9563L7.07355 11.6229C6.82121 11.3874 6.80757 10.9919 7.04309 10.7396C7.27861 10.4872 7.67411 10.4736 7.92645 10.7091L8.92858 11.6444L12.0736 8.7091C12.3259 8.4736 12.7214 8.48718 12.9569 8.7396Z" fill="#1D84C7"/>
</svg>
