<svg width="32" height="32" viewBox="0 0 32 32" fill="none" xmlns="http://www.w3.org/2000/svg">
<g id="fi_2940656">
<g id="layer2">
<path id="rect3064" d="M16 1C21.263 1 25.5 5.237 25.5 10.5V22.5C25.5 22.5 6.5 22.5 6.5 22.5V10.5C6.5 5.237 10.737 1 16 1Z" fill="#356287"/>
<path id="path3096" d="M6.5 10.5V22.5H7.5V10.5C7.5 5.40593 11.4791 1.27319 16.5062 1.01313C16.3395 1.00444 16.1689 0.999996 16 1C10.737 1 6.5 5.237 6.5 10.5Z" fill="#2C5170"/>
<path id="path2746" d="M10.1576 19.6094C10.1472 19.6102 10.1369 19.6114 10.1266 19.613C5.57838 19.8913 2 23.7492 2 28.4713V30.5303C1.99951 30.6546 2.04821 30.7741 2.13539 30.8623C2.22256 30.9506 2.34107 31.0004 2.46485 31.0009H29.5315C29.5931 31.0012 29.6541 30.9892 29.7111 30.9656C29.768 30.942 29.8198 30.9074 29.8633 30.8636C29.9069 30.8199 29.9414 30.7679 29.9648 30.7107C29.9883 30.6535 30.0002 30.5922 30 30.5304V28.4714C30 23.7492 26.4216 19.8914 21.8734 19.613C21.8631 19.6115 21.8528 19.6103 21.8424 19.6094L10.1576 19.6094Z" fill="#5299D3"/>
<path id="path2748" d="M12.751 15.8164V19.4802V21.4458L16.0487 23.0928L19.3116 21.2069V19.4802V15.8164H18.8447H12.751Z" fill="#FFCCAA"/>
<path id="path2777" d="M8.45532 11.7643C8.45532 12.9405 9.36024 13.934 10.5079 13.934C10.6316 13.934 10.754 13.9198 10.8751 13.8965V10.11V9.63209C10.7537 9.60852 10.6309 9.59179 10.5079 9.5918C9.36024 9.5918 8.45532 10.5881 8.45532 11.7643Z" fill="#FFB889"/>
<path id="path2779" d="M23.6072 11.7643C23.6072 12.9405 22.7023 13.934 21.5546 13.934C21.431 13.934 21.3085 13.9198 21.1875 13.8965V10.11V9.63209C21.3088 9.60852 21.4317 9.59179 21.5546 9.5918C22.7023 9.5918 23.6072 10.5881 23.6072 11.7643Z" fill="#FFCCAA"/>
<path id="path2970" d="M12.751 15.8164V17.8213C13.6855 18.4559 14.8145 18.8271 16.0312 18.8271C17.248 18.8271 18.3768 18.4559 19.3115 17.8213V15.8164H18.8447H12.751Z" fill="#FFB889"/>
<path id="path2786" d="M14.5472 5.70229C14.3055 5.72075 14.1177 5.92042 14.1141 6.16279C14.0998 7.52692 13.0043 8.62274 11.6404 8.62274H10.6644C10.4066 8.62377 10.198 8.83276 10.1975 9.09056V12.0073C10.1975 15.2241 12.8075 17.8272 16.0312 17.8272C19.255 17.8272 21.8659 15.2241 21.8659 12.0073V9.09056C21.8654 8.83241 21.6562 8.62327 21.3981 8.62274H17.9832C16.5125 8.62274 15.2713 7.54682 15.0489 6.09687C15.0133 5.87173 14.8209 5.70484 14.593 5.70137C14.5777 5.70092 14.5624 5.70124 14.5472 5.70229Z" fill="#FFCCAA"/>
<path id="path2964" d="M10.1572 19.6075C10.1471 19.6085 10.137 19.6098 10.127 19.6115C5.57877 19.8898 2 23.7477 2 28.4699V30.5285C1.99975 30.59 2.01158 30.651 2.0348 30.708C2.05803 30.765 2.0922 30.8168 2.13536 30.8605C2.17853 30.9042 2.22984 30.939 2.28638 30.9627C2.34291 30.9865 2.40355 30.9989 2.46485 30.9992H3.46485C3.40355 30.9989 3.3429 30.9865 3.28636 30.9627C3.22982 30.9389 3.1785 30.9042 3.13534 30.8605C3.09217 30.8168 3.058 30.7649 3.03478 30.708C3.01156 30.651 2.99974 30.59 3 30.5284V28.4698C3 23.7476 6.57877 19.8898 11.127 19.6114C11.137 19.6097 11.1471 19.6084 11.1572 19.6074L10.1572 19.6075Z" fill="#3385C8"/>
<path id="path2789" d="M11.9518 17.8516C11.8308 17.8545 11.7157 17.904 11.6304 17.9899L9.88266 19.7339C9.79535 19.8217 9.74634 19.9405 9.74634 20.0644C9.74634 20.1882 9.79535 20.307 9.88266 20.3949L13.9558 24.4643C14.0436 24.5513 14.1623 24.6001 14.2859 24.6001C14.4095 24.6001 14.5281 24.5513 14.6159 24.4643L16.0313 23.0526L17.4431 24.4643C17.4867 24.508 17.5384 24.5428 17.5955 24.5665C17.6525 24.5902 17.7137 24.6024 17.7754 24.6024C17.8372 24.6024 17.8983 24.5902 17.9554 24.5665C18.0124 24.5428 18.0642 24.508 18.1078 24.4643L22.18 20.3949C22.2673 20.307 22.3163 20.1882 22.3163 20.0644C22.3163 19.9405 22.2673 19.8217 22.18 19.7339L20.4332 17.9899C20.3892 17.9456 20.3368 17.9106 20.2791 17.8869C20.2214 17.8631 20.1596 17.8511 20.0972 17.8516C19.975 17.8536 19.8584 17.9032 19.7722 17.9899L16.0313 21.7242L12.2914 17.9899C12.247 17.9452 12.194 17.9099 12.1357 17.8861C12.0773 17.8624 12.0148 17.8507 11.9518 17.8516Z" fill="#A0C7E7"/>
<path id="path2825" d="M7.52256 27.0064C7.45151 27.0032 7.3806 27.0152 7.31457 27.0416C7.24853 27.068 7.18889 27.1082 7.13963 27.1595C7.09037 27.2108 7.05261 27.2721 7.02889 27.3391C7.00516 27.4061 6.99601 27.4775 7.00205 27.5483V30.9995H7.99814V27.5483C8.00386 27.4813 7.99597 27.4137 7.97494 27.3497C7.95391 27.2858 7.92018 27.2267 7.87576 27.1761C7.83135 27.1255 7.77717 27.0843 7.71648 27.0552C7.65578 27.026 7.58983 27.0094 7.52256 27.0064Z" fill="#3385C8"/>
<path id="path2937" d="M24.5226 27.0064C24.4515 27.0032 24.3806 27.0152 24.3146 27.0416C24.2485 27.068 24.1889 27.1082 24.1396 27.1595C24.0904 27.2108 24.0526 27.2721 24.0289 27.3391C24.0052 27.4061 23.996 27.4775 24.002 27.5483V30.9995H24.9981V27.5483C25.0039 27.4813 24.996 27.4137 24.9749 27.3497C24.9539 27.2858 24.9202 27.2267 24.8758 27.1761C24.8313 27.1255 24.7772 27.0843 24.7165 27.0552C24.6558 27.026 24.5898 27.0094 24.5226 27.0064Z" fill="#3385C8"/>
<path id="path2982" d="M10.6641 8.62305C10.4063 8.62415 10.1978 8.83309 10.1973 9.09082V12.0078C10.1973 15.2246 12.8075 17.8281 16.0312 17.8281C16.2911 17.8281 16.5451 17.8052 16.7959 17.7725C13.6388 17.3784 11.1973 14.7001 11.1973 11.4424V8.62305H10.6641Z" fill="#FFB889"/>
</g>
</g>
</svg>
