<svg xmlns="http://www.w3.org/2000/svg" width="16" height="16" viewBox="0 0 16 16" fill="none">
    <path fill-rule="evenodd" clip-rule="evenodd" d="M3.30193 1.5C3.31233 1.5 3.32278 1.5 3.33326 1.5H12.6979C13.1425 1.49998 13.5227 1.49996 13.8265 1.53828C14.1487 1.57893 14.4601 1.67019 14.7158 1.91016C14.9761 2.15436 15.0795 2.45904 15.1249 2.77603C15.1667 3.06723 15.1667 3.42931 15.1666 3.84239V4.36008C15.1666 4.68575 15.1666 4.9673 15.1423 5.20207C15.1161 5.45471 15.0589 5.69173 14.9216 5.91929C14.7853 6.14513 14.6018 6.30907 14.3902 6.45603C14.1909 6.59447 13.9363 6.7378 13.6368 6.9064L11.6752 8.0106C11.2287 8.262 11.0732 8.35253 10.9694 8.4426C10.731 8.6496 10.5945 8.8792 10.5303 9.16693C10.5029 9.28993 10.4999 9.4448 10.4999 9.91527V11.7367C10.5 12.3375 10.5 12.8476 10.4382 13.2397C10.3724 13.6567 10.2198 14.0566 9.81979 14.3068C9.42885 14.5513 8.99825 14.5289 8.57979 14.4295C8.17679 14.3338 7.68012 14.1396 7.08419 13.9066L7.02625 13.884C6.74712 13.7749 6.50266 13.6793 6.30915 13.5794C6.10119 13.472 5.90805 13.3384 5.76029 13.1305C5.61086 12.9202 5.55095 12.6947 5.52424 12.4642C5.49988 12.254 5.4999 12.0017 5.49992 11.7204V9.91527C5.49992 9.4448 5.49695 9.28993 5.46953 9.16693C5.40539 8.8792 5.26887 8.6496 5.03048 8.4426C4.92668 8.35253 4.7712 8.262 4.32468 8.0106L2.36306 6.9064C2.06358 6.7378 1.80894 6.59447 1.60964 6.45603C1.39808 6.30907 1.21453 6.14513 1.07823 5.91929C0.940907 5.69173 0.883727 5.45471 0.857553 5.20207C0.833227 4.96729 0.83324 4.68575 0.833253 4.36008L0.83326 3.87644C0.83326 3.86505 0.833253 3.85369 0.833253 3.84238C0.833227 3.42931 0.833193 3.06723 0.874927 2.77603C0.920347 2.45904 1.02376 2.15436 1.28404 1.91016C1.53981 1.67019 1.85122 1.57893 2.17341 1.53828C2.4772 1.49996 2.8573 1.49998 3.30193 1.5ZM2.29856 2.53042C2.07612 2.55848 2.00539 2.60461 1.96826 2.63944C1.93565 2.67003 1.89261 2.7239 1.86481 2.91789C1.83446 3.12969 1.83326 3.41912 1.83326 3.87644V4.33632C1.83326 4.69246 1.83387 4.92185 1.85223 5.09903C1.86932 5.26403 1.89867 5.34338 1.93441 5.40261C1.97119 5.46355 2.03225 5.532 2.18015 5.63473C2.33596 5.74296 2.54883 5.86339 2.87321 6.04599L4.81523 7.1392C4.83341 7.14947 4.85132 7.15953 4.86897 7.16947C5.24143 7.379 5.49511 7.52173 5.68605 7.68747C6.08029 8.02973 6.33323 8.44547 6.44557 8.94933C6.50016 9.1942 6.50007 9.46873 6.49993 9.85633C6.49993 9.87567 6.49992 9.89533 6.49992 9.91527V11.6949C6.49992 12.0097 6.5007 12.2033 6.51759 12.3491C6.53287 12.4809 6.55693 12.5252 6.57545 12.5513C6.59565 12.5797 6.63563 12.6225 6.76792 12.6909C6.90952 12.764 7.10465 12.8409 7.41272 12.9613C8.05339 13.2118 8.48432 13.379 8.81085 13.4565C9.12992 13.5323 9.23505 13.4931 9.28945 13.459C9.33479 13.4307 9.40479 13.3731 9.45039 13.084C9.49845 12.7791 9.49992 12.3489 9.49992 11.6949V9.91527C9.49992 9.89533 9.49992 9.87567 9.49992 9.85633C9.49979 9.46873 9.49965 9.1942 9.55425 8.94933C9.66659 8.44547 9.91952 8.02973 10.3138 7.68747C10.5047 7.52173 10.7584 7.379 11.1309 7.16947C11.1485 7.15953 11.1665 7.14947 11.1847 7.1392L13.1267 6.04599C13.4511 5.86339 13.6639 5.74296 13.8197 5.63473C13.9676 5.532 14.0287 5.46355 14.0655 5.40261C14.1012 5.34338 14.1305 5.26403 14.1476 5.09903C14.166 4.92185 14.1666 4.69246 14.1666 4.33632V3.87644C14.1666 3.41912 14.1654 3.12969 14.1351 2.91789C14.1073 2.7239 14.0642 2.67003 14.0316 2.63944C13.9945 2.60461 13.9237 2.55848 13.7013 2.53042C13.4676 2.50094 13.1513 2.5 12.6666 2.5H3.33326C2.84857 2.5 2.53228 2.50094 2.29856 2.53042Z" fill="#262627"/>
</svg>