<svg width="32" height="21" viewBox="0 0 32 21" fill="none" xmlns="http://www.w3.org/2000/svg">
<g id="Goods-and-Service-Tax-Network-Color 1" clip-path="url(#clip0_247_18606)">
<g id="Group">
<path id="Vector" d="M17.0442 1.71484C17.0442 1.71484 17.3848 3.58781 15.5762 3.96484C13.7677 4.34186 9.35766 2.91281 5.79623 7.3824C2.34009 11.7182 4.17345 16.6317 7.66056 17.4891C7.84638 17.5317 8.03219 17.556 8.2242 17.556H11.6865C11.7423 17.556 11.8042 17.5499 11.86 17.5439C12.1697 17.4891 13.1173 17.258 13.2474 16.3216V15.4033C13.2536 15.1905 13.173 14.9898 13.0244 14.8317C12.8572 14.6736 12.6528 14.552 12.4298 14.4851C12.3555 14.4608 12.2749 14.4486 12.1944 14.4486H10.1071C9.71071 14.4486 9.32669 14.3148 9.0232 14.0655C7.98883 13.2385 6.13069 11.1101 9.27095 8.06956C9.27095 8.06956 10.2805 7.19388 11.668 7.15132C13.0554 7.10875 17.7255 7.15132 17.7255 7.15132C17.7255 7.15132 20.5994 7.48578 20.1658 10.575C19.7323 13.6641 18.5493 18.7114 18.5493 18.7114C18.5493 18.7114 18.2829 19.7756 17.0813 19.7391H16.1647L18.0723 10.3621C18.0785 10.2709 18.0785 10.1858 18.0723 10.0946C18.0723 9.86347 17.8246 9.28577 17.199 9.30401C17.1433 9.30401 17.0937 9.30401 17.038 9.30401L11.0238 9.26753C11.0238 9.26753 9.14088 9.84523 9.53728 11.5297C9.93369 13.2141 12.4731 11.6817 13.8606 12.6121C15.248 13.5425 15.9726 14.8378 15.025 17.0999C15.0126 17.1243 15.0002 17.1547 14.9816 17.179C14.0154 18.9729 12.5103 19.5202 11.8538 19.6783C11.6865 19.7209 11.5131 19.7391 11.3397 19.7391H7.70392C7.35087 19.7391 6.99782 19.6783 6.66336 19.5506C4.80522 18.8452 -0.800173 15.9689 2.94708 7.88713C3.00282 7.7655 3.06476 7.64996 3.13909 7.5405C3.7275 6.57362 6.73149 2.37768 12.4298 1.71484H17.0442Z" fill="#2F2F7E"/>
<path id="Vector_2" d="M23.2513 7.10167C23.6149 6.86279 24.1212 6.75866 24.686 7.32217C24.8743 7.51817 25.0106 7.75705 25.0756 8.0143L26.5038 13.239C26.5038 13.239 26.744 14.1026 26.9842 13.239C27.2244 12.3753 28.3151 6.91179 28.3151 6.91179C28.3151 6.91179 30.5873 6.47691 30.2887 8.26543C30.2887 8.27768 30.2822 8.28993 30.2757 8.3083C29.7628 10.2009 28.01 18.8128 28.01 18.8128C27.9645 18.9843 27.8801 19.1496 27.7633 19.2905C27.1725 19.9888 26.0234 19.8724 25.6144 18.9536C25.569 18.8434 25.5365 18.7331 25.5235 18.6168C25.3742 17.6735 24.0368 13.2635 24.0368 13.2635C24.0368 13.2635 23.7966 12.7612 23.6149 13.2635C23.4331 13.7657 22.3165 19.6029 22.3165 19.6029C22.3165 19.6029 20.4792 20.1052 20.226 18.6168C20.2001 18.4575 20.2066 18.2921 20.2455 18.1329L22.5826 8.0633C22.6735 7.67742 22.9137 7.33442 23.2513 7.10167Z" fill="#136D38"/>
<path id="Vector_3" d="M22.1816 0.857422H23.5789L21.7075 2.21238L22.9301 3.43245H21.4518L20.2104 2.23077L22.1816 0.857422Z" fill="#EE3424"/>
<path id="Vector_4" d="M19.6552 0.857422H21.0525L19.1812 2.21238L20.4038 3.43245H18.9254L17.6841 2.23077L19.6552 0.857422Z" fill="#EE3424"/>
<path id="Vector_5" d="M25.0532 0.857422H26.5976L27.7893 2.0591L25.7646 3.43245H24.4209L26.3118 2.14494L25.0532 0.857422Z" fill="#EE3424"/>
<path id="Vector_6" d="M27.5796 0.857422H29.124L30.3157 2.0591L28.291 3.43245H26.9473L28.8382 2.14494L27.5796 0.857422Z" fill="#EE3424"/>
</g>
</g>
<defs>
<clipPath id="clip0_247_18606">
<rect width="32" height="21" fill="white"/>
</clipPath>
</defs>
</svg>
