<svg width="20" height="20" viewBox="0 0 20 20" fill="none" xmlns="http://www.w3.org/2000/svg">
<g id="Hand Stars 1" clip-path="url(#clip0_247_18217)">
<path id="Vector" d="M9.05116 2.80214C9.47333 2.04472 9.6845 1.66602 10.0001 1.66602C10.3157 1.66602 10.5268 2.04472 10.949 2.80214L11.0582 2.99809C11.1782 3.21332 11.2382 3.32094 11.3317 3.39195C11.4253 3.46296 11.5418 3.48932 11.7747 3.54203L11.9869 3.59002C12.8068 3.77553 13.2167 3.86829 13.3142 4.18192C13.4118 4.49557 13.1323 4.82237 12.5734 5.47599L12.4287 5.64509C12.2699 5.83082 12.1905 5.9237 12.1548 6.03859C12.1191 6.15348 12.1311 6.27738 12.1551 6.5252L12.1769 6.75082C12.2614 7.62288 12.3037 8.05892 12.0483 8.25276C11.793 8.4466 11.4092 8.26987 10.6415 7.91641L10.4429 7.82496C10.2247 7.72452 10.1157 7.6743 10.0001 7.6743C9.8845 7.6743 9.77541 7.72452 9.55725 7.82496L9.35866 7.91641C8.591 8.26987 8.20714 8.4466 7.9518 8.25276C7.69646 8.05892 7.73871 7.62288 7.82321 6.75082L7.84507 6.5252C7.86909 6.27738 7.8811 6.15348 7.84537 6.03859C7.80964 5.9237 7.73022 5.83082 7.57139 5.64509L7.42678 5.47599C6.86783 4.82237 6.58836 4.49557 6.68589 4.18192C6.78342 3.86829 7.19336 3.77553 8.01326 3.59002L8.22537 3.54203C8.45833 3.48932 8.57483 3.46296 8.66841 3.39195C8.76191 3.32094 8.82191 3.21332 8.94191 2.99809L9.05116 2.80214Z" stroke="#1D84C7" stroke-width="1.5"/>
<path id="Vector_2" d="M16.1922 6.40205C16.4033 6.02334 16.5088 5.83398 16.6667 5.83398C16.8245 5.83398 16.93 6.02333 17.1412 6.40204L17.1957 6.50003C17.2557 6.60764 17.2857 6.66145 17.3325 6.69695C17.3792 6.73246 17.4375 6.74563 17.554 6.77199L17.6601 6.79599C18.07 6.88874 18.275 6.93512 18.3237 7.09194C18.3725 7.24876 18.2328 7.41216 17.9533 7.73897L17.881 7.82352C17.8016 7.91639 17.7619 7.96283 17.744 8.02027C17.7262 8.07772 17.7322 8.13967 17.7442 8.26358L17.7551 8.3764C17.7973 8.8124 17.8185 9.0304 17.6908 9.12732C17.5632 9.22423 17.3712 9.1359 16.9874 8.95915L16.8881 8.91348C16.779 8.86323 16.7245 8.83815 16.6667 8.83815C16.6088 8.83815 16.5543 8.86323 16.4452 8.91348L16.3459 8.95915C15.9621 9.1359 15.7702 9.22423 15.6425 9.12732C15.5148 9.0304 15.536 8.8124 15.5782 8.3764L15.5892 8.26358C15.6012 8.13967 15.6072 8.07772 15.5893 8.02027C15.5714 7.96283 15.5317 7.91639 15.4523 7.82352L15.38 7.73898C15.1005 7.41216 14.9608 7.24876 15.0096 7.09194C15.0583 6.93512 15.2633 6.88874 15.6732 6.79599L15.7793 6.77199C15.8958 6.74563 15.9541 6.73246 16.0008 6.69695C16.0476 6.66145 16.0776 6.60764 16.1376 6.50003L16.1922 6.40205Z" stroke="#1D84C7"/>
<path id="Vector_3" d="M2.85894 6.40205C3.07005 6.02334 3.17561 5.83398 3.33342 5.83398C3.49123 5.83398 3.59678 6.02333 3.80789 6.40204L3.86251 6.50003C3.9225 6.60764 3.95249 6.66145 3.99926 6.69695C4.04603 6.73246 4.10428 6.74563 4.22077 6.77199L4.32683 6.79599C4.73678 6.88874 4.94175 6.93512 4.99052 7.09194C5.03928 7.24876 4.89954 7.41216 4.62007 7.73897L4.54777 7.82352C4.46834 7.91639 4.42863 7.96283 4.41078 8.02027C4.39291 8.07772 4.39891 8.13967 4.41092 8.26358L4.42185 8.3764C4.4641 8.8124 4.48523 9.0304 4.35756 9.12732C4.22988 9.22423 4.03798 9.1359 3.65414 8.95915L3.55483 8.91348C3.44576 8.86323 3.39123 8.83815 3.33342 8.83815C3.27561 8.83815 3.22108 8.86323 3.112 8.91348L3.01269 8.95915C2.62887 9.1359 2.43695 9.22423 2.30928 9.12732C2.1816 9.0304 2.20273 8.8124 2.24498 8.3764L2.25592 8.26358C2.26793 8.13967 2.27393 8.07772 2.25606 8.02027C2.2382 7.96283 2.19849 7.91639 2.11907 7.82352L2.04677 7.73898C1.76729 7.41216 1.62755 7.24876 1.67632 7.09194C1.72508 6.93512 1.93006 6.88874 2.34001 6.79599L2.44607 6.77199C2.56256 6.74563 2.62081 6.73246 2.66758 6.69695C2.71434 6.66145 2.74434 6.60764 2.80433 6.50003L2.85894 6.40205Z" stroke="#1D84C7"/>
<path id="Vector_4" d="M4.16675 16.9897H6.05002C6.89241 16.9897 7.74386 17.0774 8.56366 17.2464C10.0139 17.5451 11.5407 17.5813 13.0058 17.3442C13.7282 17.2272 14.4384 17.0484 15.0813 16.7381C15.6617 16.458 16.3725 16.0632 16.85 15.6209C17.3268 15.1794 17.8234 14.4566 18.1758 13.8916C18.4781 13.4072 18.3319 12.8129 17.8538 12.4519C17.3228 12.0509 16.5348 12.051 16.0039 12.4521L14.4979 13.5897C13.9142 14.0306 13.2767 14.4364 12.5172 14.5576C12.4259 14.5722 12.3302 14.5855 12.2304 14.597M12.2304 14.597C12.2003 14.6005 12.1699 14.6039 12.1391 14.607M12.2304 14.597C12.3519 14.571 12.4725 14.496 12.5857 14.3973C13.1217 13.9294 13.1556 13.141 12.6905 12.6186C12.5827 12.4974 12.4563 12.3964 12.316 12.3126C9.98483 10.9222 6.35793 11.9812 4.16675 13.5351M12.2304 14.597C12.2 14.6035 12.1695 14.607 12.1391 14.607M12.1391 14.607C11.7029 14.6518 11.1927 14.6634 10.6266 14.6099" stroke="#1D84C7" stroke-width="1.5" stroke-linecap="round"/>
<path id="Vector_5" d="M4.16675 12.916C4.16675 12.2257 3.6071 11.666 2.91675 11.666C2.22639 11.666 1.66675 12.2257 1.66675 12.916V17.0827C1.66675 17.773 2.22639 18.3327 2.91675 18.3327C3.6071 18.3327 4.16675 17.773 4.16675 17.0827V12.916Z" stroke="#1D84C7" stroke-width="1.5"/>
</g>
<defs>
<clipPath id="clip0_247_18217">
<rect width="20" height="20" fill="white"/>
</clipPath>
</defs>
</svg>
