<svg width="20" height="20" viewBox="0 0 20 20" fill="none" xmlns="http://www.w3.org/2000/svg">
<g id="help" clip-path="url(#clip0_247_18253)">
<path id="Vector" d="M10.0001 18.3327C14.6025 18.3327 18.3334 14.6017 18.3334 9.99935C18.3334 5.39698 14.6025 1.66602 10.0001 1.66602C5.39771 1.66602 1.66675 5.39698 1.66675 9.99935C1.66675 14.6017 5.39771 18.3327 10.0001 18.3327Z" stroke="#1D84C7" stroke-width="1.5"/>
<path id="Vector_2" d="M8.4375 7.39648C8.4375 6.53354 9.13708 5.83398 10 5.83398C10.8629 5.83398 11.5625 6.53354 11.5625 7.39648C11.5625 7.96936 11.2542 8.47023 10.7945 8.74223C10.3983 8.97657 10 9.33207 10 9.79232V10.834" stroke="#1D84C7" stroke-width="1.5" stroke-linecap="round"/>
<path id="Vector_3" d="M10.0001 14.1667C10.4603 14.1667 10.8334 13.7936 10.8334 13.3333C10.8334 12.8731 10.4603 12.5 10.0001 12.5C9.53984 12.5 9.16675 12.8731 9.16675 13.3333C9.16675 13.7936 9.53984 14.1667 10.0001 14.1667Z" fill="#1D84C7"/>
</g>
<defs>
<clipPath id="clip0_247_18253">
<rect width="20" height="20" fill="white"/>
</clipPath>
</defs>
</svg>
