<svg width="22" height="22" viewBox="0 0 22 22" fill="none" xmlns="http://www.w3.org/2000/svg">
<g id="home">
<path id="Vector" d="M8.25 15.8125C7.87031 15.8125 7.5625 16.1203 7.5625 16.5C7.5625 16.8797 7.87031 17.1875 8.25 17.1875H13.75C14.1297 17.1875 14.4375 16.8797 14.4375 16.5C14.4375 16.1203 14.1297 15.8125 13.75 15.8125H8.25Z" fill="#A6A6A6"/>
<path id="Vector_2" fill-rule="evenodd" clip-rule="evenodd" d="M10.9999 1.14648C10.3508 1.14648 9.76104 1.3324 9.12126 1.64354C8.50278 1.94431 7.7883 2.38773 6.89587 2.94161L5.00151 4.11731C4.15708 4.64138 3.48091 5.06102 2.95974 5.46014C2.42006 5.87345 2.00554 6.29438 1.70612 6.84139C1.40732 7.38726 1.27277 7.96808 1.20826 8.65463C1.14574 9.31994 1.14574 10.1336 1.14575 11.1539V12.6322C1.14574 14.3774 1.14573 15.755 1.28573 16.8321C1.42934 17.9371 1.7311 18.8291 2.41292 19.5343C3.09787 20.2429 3.96951 20.5594 5.04856 20.7094C6.09437 20.8548 7.43001 20.8548 9.11328 20.8548H12.8865C14.5698 20.8548 15.9055 20.8548 16.9513 20.7094C18.0303 20.5594 18.902 20.2429 19.5869 19.5343C20.2687 18.8291 20.5705 17.9371 20.7141 16.8321C20.8541 15.755 20.8541 14.3775 20.8541 12.6322V11.1539C20.8541 10.1336 20.8541 9.31994 20.7916 8.65463C20.727 7.96808 20.5925 7.38726 20.2937 6.84139C19.9943 6.29438 19.5798 5.87345 19.0401 5.46014C18.519 5.06102 17.8427 4.64139 16.9983 4.11732L15.1039 2.9416C14.2116 2.38773 13.497 1.9443 12.8785 1.64354C12.2388 1.3324 11.649 1.14648 10.9999 1.14648ZM7.58949 4.12943C8.5206 3.55155 9.17529 3.14622 9.72254 2.88008C10.2558 2.62079 10.6334 2.52148 10.9999 2.52148C11.3664 2.52148 11.7441 2.62079 12.2773 2.88008C12.8245 3.14622 13.4792 3.55155 14.4104 4.12943L16.2437 5.26724C17.1244 5.81387 17.7428 6.19855 18.2041 6.55179C18.6529 6.89549 18.911 7.17912 19.0876 7.5016C19.2648 7.82522 19.3682 8.20358 19.4226 8.78327C19.4784 9.37687 19.4791 10.126 19.4791 11.1876V12.5819C19.4791 14.3886 19.4777 15.6768 19.3506 16.6549C19.2257 17.6156 18.9905 18.173 18.5984 18.5786C18.2094 18.981 17.6798 19.2199 16.7619 19.3475C15.8218 19.4783 14.5818 19.4798 12.8333 19.4798H9.16658C7.41802 19.4798 6.1781 19.4783 5.23795 19.3475C4.32004 19.2199 3.79046 18.981 3.40148 18.5786C3.00934 18.173 2.77414 17.6156 2.64926 16.6549C2.52212 15.6768 2.52075 14.3886 2.52075 12.5819V11.1876C2.52075 10.126 2.52145 9.37687 2.57723 8.78327C2.6317 8.20358 2.73511 7.82522 2.91225 7.5016C3.08876 7.17912 3.34697 6.89549 3.79576 6.55179C4.25701 6.19855 4.87538 5.81387 5.75615 5.26724L7.58949 4.12943Z" fill="#A6A6A6"/>
</g>
</svg>
