<svg width="14" height="14" viewBox="0 0 14 14" fill="none" xmlns="http://www.w3.org/2000/svg">
<g clip-path="url(#clip0_664_9825)">
<path fill-rule="evenodd" clip-rule="evenodd" d="M0 7C0 3.134 3.134 0 7 0C10.866 0 14 3.134 14 7C14 10.866 10.866 14 7 14C3.134 14 0 10.866 0 7ZM6.475 2.1C6.475 1.81005 6.71006 1.575 7 1.575C9.99614 1.575 12.425 4.00385 12.425 7C12.425 9.99614 9.99614 12.425 7 12.425C4.00385 12.425 1.575 9.99614 1.575 7C1.575 6.71006 1.81005 6.475 2.1 6.475C2.38995 6.475 2.625 6.71006 2.625 7C2.625 9.41626 4.58375 11.375 7 11.375C9.41626 11.375 11.375 9.41626 11.375 7C11.375 4.58375 9.41626 2.625 7 2.625C6.71006 2.625 6.475 2.38995 6.475 2.1ZM7 3.675C6.71006 3.675 6.475 3.91005 6.475 4.2C6.475 4.48995 6.71006 4.725 7 4.725C8.25643 4.725 9.275 5.74357 9.275 7C9.275 8.25643 8.25643 9.275 7 9.275C6.71006 9.275 6.475 9.51006 6.475 9.8C6.475 10.0899 6.71006 10.325 7 10.325C8.83638 10.325 10.325 8.83638 10.325 7C10.325 5.16365 8.83638 3.675 7 3.675Z" fill="#1B9346"/>
</g>
<defs>
<clipPath id="clip0_664_9825">
<rect width="14" height="14" fill="white"/>
</clipPath>
</defs>
</svg>
