<svg width="22" height="22" viewBox="0 0 22 22" fill="none" xmlns="http://www.w3.org/2000/svg">
<g id="info feed">
<path id="Vector" d="M17.9318 6.41667C18.1413 5.22063 17.221 4.125 16.0067 4.125H5.99322C4.77895 4.125 3.85861 5.22063 4.06819 6.41667" stroke="#A6A6A6" stroke-width="1.5"/>
<path id="Vector_2" d="M16.0416 4.12565C16.0676 3.88816 16.0806 3.76939 16.0809 3.67131C16.0829 2.73298 15.3761 1.94457 14.4432 1.84445C14.3456 1.83398 14.2261 1.83398 13.9872 1.83398H8.01257C7.77365 1.83398 7.65418 1.83398 7.55666 1.84445C6.62368 1.94457 5.91691 2.73298 5.91895 3.6713C5.91916 3.76939 5.93217 3.88814 5.95817 4.12565" stroke="#A6A6A6" stroke-width="1.5"/>
<path id="Vector_3" d="M13.75 16.5H8.25" stroke="#A6A6A6" stroke-width="1.5" stroke-linecap="round"/>
<path id="Vector_4" d="M2.1848 12.6429C1.77594 9.74297 1.57152 8.29303 2.44038 7.35453C3.30924 6.41602 4.85603 6.41602 7.94961 6.41602H14.0502C17.1438 6.41602 18.6906 6.41602 19.5595 7.35453C20.4283 8.29303 20.2239 9.74297 19.815 12.6429L19.4273 15.3929C19.1066 17.6671 18.9464 18.8041 18.124 19.4851C17.3015 20.166 16.0885 20.166 13.6625 20.166H8.33733C5.91133 20.166 4.69832 20.166 3.8759 19.4851C3.05347 18.8041 2.89316 17.6671 2.57253 15.3929L2.1848 12.6429Z" stroke="#A6A6A6" stroke-width="1.5"/>
</g>
</svg>
