<svg width="20" height="20" viewBox="0 0 20 20" fill="none" xmlns="http://www.w3.org/2000/svg">
<g id="langua" clip-path="url(#clip0_247_18243)">
<path id="Vector" d="M18.3334 9.99935C18.3334 11.0937 18.1178 12.1773 17.6991 13.1883C17.2802 14.1994 16.6665 15.1181 15.8927 15.8919C15.1188 16.6658 14.2002 17.2795 13.1891 17.6983C12.1781 18.1171 11.0944 18.3327 10.0001 18.3327C8.90575 18.3327 7.8221 18.1171 6.81106 17.6983C5.80001 17.2795 4.88135 16.6658 4.10752 15.8919C3.33371 15.1181 2.71987 14.1994 2.30108 13.1883C1.8823 12.1773 1.66675 11.0937 1.66675 9.99935C1.66675 8.90502 1.8823 7.82137 2.30109 6.81032C2.71987 5.79927 3.33371 4.88062 4.10752 4.10679C4.88135 3.33297 5.80001 2.71914 6.81106 2.30035C7.8221 1.88157 8.90575 1.66602 10.0001 1.66602C11.0944 1.66602 12.1781 1.88157 13.1891 2.30036C14.2002 2.71914 15.1188 3.33297 15.8927 4.10679C16.6665 4.88062 17.2802 5.79927 17.6991 6.81032C18.1178 7.82137 18.3334 8.90502 18.3334 9.99935Z" stroke="#1D84C7" stroke-width="1.5"/>
<path id="Vector_2" d="M13.3334 9.99935C13.3334 11.0937 13.2472 12.1773 13.0797 13.1883C12.9122 14.1994 12.6667 15.1181 12.3571 15.8919C12.0476 16.6658 11.6801 17.2795 11.2757 17.6983C10.8712 18.1171 10.4378 18.3327 10.0001 18.3327C9.56233 18.3327 9.12891 18.1171 8.7245 17.6983C8.32005 17.2795 7.95259 16.6658 7.64306 15.8919C7.33353 15.1181 7.088 14.1994 6.92048 13.1883C6.75296 12.1773 6.66675 11.0937 6.66675 9.99935C6.66675 8.90502 6.75296 7.82137 6.92048 6.81032C7.088 5.79927 7.33353 4.88062 7.64306 4.10679C7.95259 3.33297 8.32005 2.71914 8.7245 2.30035C9.12891 1.88157 9.56233 1.66602 10.0001 1.66602C10.4378 1.66602 10.8712 1.88157 11.2757 2.30036C11.6801 2.71914 12.0476 3.33297 12.3571 4.10679C12.6667 4.88062 12.9122 5.79927 13.0797 6.81032C13.2472 7.82137 13.3334 8.90502 13.3334 9.99935Z" stroke="#1D84C7" stroke-width="1.5"/>
<path id="Vector_3" d="M1.66675 10H18.3334" stroke="#1D84C7" stroke-width="1.5" stroke-linecap="round"/>
</g>
<defs>
<clipPath id="clip0_247_18243">
<rect width="20" height="20" fill="white"/>
</clipPath>
</defs>
</svg>
