<svg xmlns="http://www.w3.org/2000/svg" width="16" height="16" viewBox="0 0 16 16" fill="none">
    <path d="M2 6.82247L2.49814 6.7794C2.47507 6.51264 2.24595 6.31139 1.97845 6.32294C1.71093 6.33448 1.5 6.55471 1.5 6.82247H2ZM13.4907 8.03794L13.0204 10.7577L14.0058 10.9282L14.4761 8.20834L13.4907 8.03794ZM8.83 14.1663H5.7309V15.1663H8.83V14.1663ZM5.12332 13.608L4.58188 7.3462L3.5856 7.43234L4.12704 13.6941L5.12332 13.608ZM13.0204 10.7577C12.6825 12.7115 10.9209 14.1663 8.83 14.1663V15.1663C11.3808 15.1663 13.5805 13.387 14.0058 10.9282L13.0204 10.7577ZM8.83653 3.39977L8.39473 6.09615L9.3816 6.25784L9.8234 3.56146L8.83653 3.39977ZM4.79182 6.83007L5.75098 6.00357L5.09819 5.24603L4.13903 6.07256L4.79182 6.83007ZM7.496 3.31438L7.81313 2.09181L6.8452 1.84072L6.52805 3.06328L7.496 3.31438ZM8.29213 1.85194L8.3888 1.88299L8.69467 0.930918L8.598 0.899871L8.29213 1.85194ZM7.01567 4.54366C7.2236 4.15432 7.38513 3.74193 7.496 3.31438L6.52805 3.06328C6.43715 3.41372 6.30466 3.75229 6.13361 4.0725L7.01567 4.54366ZM8.3888 1.88299C8.59307 1.94862 8.73813 2.1064 8.7858 2.29023L9.7538 2.03914C9.6168 1.51113 9.21267 1.09732 8.69467 0.930918L8.3888 1.88299ZM7.81313 2.09181C7.83653 2.0018 7.90153 1.91909 7.99987 1.8717L7.56573 0.970838C7.21107 1.14173 6.94467 1.45718 6.8452 1.84072L7.81313 2.09181ZM7.99987 1.8717C8.08967 1.82841 8.1954 1.82088 8.29213 1.85194L8.598 0.899871C8.2582 0.790704 7.88747 0.815804 7.56573 0.970838L7.99987 1.8717ZM9.4358 7.32247H12.8899V6.32247H9.4358V7.32247ZM3.14587 14.2704L2.49814 6.7794L1.50186 6.86554L2.14959 14.3565L3.14587 14.2704ZM2.5 14.3415V6.82247H1.5V14.3415H2.5ZM2.14959 14.3565C2.1408 14.2549 2.22097 14.1663 2.32447 14.1663V15.1663C2.80845 15.1663 3.18748 14.7516 3.14587 14.2704L2.14959 14.3565ZM9.8234 3.56146C9.9064 3.05471 9.88273 2.53619 9.7538 2.03914L8.7858 2.29023C8.8798 2.65249 8.89707 3.03042 8.83653 3.39977L9.8234 3.56146ZM5.7309 14.1663C5.41496 14.1663 5.15067 13.9243 5.12332 13.608L4.12704 13.6941C4.19901 14.5265 4.89513 15.1663 5.7309 15.1663V14.1663ZM5.75098 6.00357C6.20421 5.613 6.6928 5.14812 7.01567 4.54366L6.13361 4.0725C5.90269 4.50478 5.535 4.86962 5.09819 5.24603L5.75098 6.00357ZM14.4761 8.20834C14.6463 7.224 13.8894 6.32247 12.8899 6.32247V7.32247C13.2676 7.32247 13.5555 7.6636 13.4907 8.03794L14.4761 8.20834ZM2.32447 14.1663C2.42195 14.1663 2.5 14.2453 2.5 14.3415H1.5C1.5 14.7965 1.86859 15.1663 2.32447 15.1663V14.1663ZM8.39473 6.09615C8.2896 6.73808 8.7844 7.32247 9.4358 7.32247V6.32247C9.40253 6.32247 9.37593 6.29234 9.3816 6.25784L8.39473 6.09615ZM4.58188 7.3462C4.56493 7.15021 4.64317 6.9582 4.79182 6.83007L4.13903 6.07256C3.74681 6.41054 3.54099 6.91654 3.5856 7.43234L4.58188 7.3462Z" fill="#656565"/>
</svg>