<svg width="20" height="20" viewBox="0 0 20 20" fill="none" xmlns="http://www.w3.org/2000/svg">
<path d="M12.9163 6.25065C12.9163 7.86148 11.6105 9.16732 9.99967 9.16732C8.38884 9.16732 7.08301 7.86148 7.08301 6.25065C7.08301 4.63982 8.38884 3.33398 9.99967 3.33398C11.6105 3.33398 12.9163 4.63982 12.9163 6.25065Z" fill="#1D84C7"/>
<path d="M15 13.7497C15 15.3605 12.7614 16.6663 10 16.6663C7.23857 16.6663 5 15.3605 5 13.7497C5 12.1388 7.23857 10.833 10 10.833C12.7614 10.833 15 12.1388 15 13.7497Z" fill="#1D84C7"/>
<path d="M5.93497 4.16699C6.08286 4.16699 6.22723 4.1815 6.36664 4.20913C6.02701 4.81238 5.83326 5.50873 5.83326 6.25033C5.83326 6.97387 6.01769 7.65434 6.34209 8.24729C6.21031 8.27185 6.0742 8.28471 5.93497 8.28471C4.75629 8.28471 3.80078 7.36293 3.80078 6.22585C3.80078 5.08878 4.75629 4.16699 5.93497 4.16699Z" fill="#1D84C7"/>
<path d="M4.53978 15.8216C4.06651 15.2558 3.75033 14.5616 3.75033 13.7499C3.75033 12.9631 4.04747 12.2866 4.49681 11.7305C2.90958 11.8536 1.66699 12.7217 1.66699 13.7744C1.66699 14.8369 2.93141 15.7114 4.53978 15.8216Z" fill="#1D84C7"/>
<path d="M14.1661 6.24935C14.1661 6.97289 13.9817 7.65337 13.6573 8.24632C13.7891 8.27087 13.9252 8.28373 14.0645 8.28373C15.2431 8.28373 16.1986 7.36195 16.1986 6.22487C16.1986 5.0878 15.2431 4.16602 14.0645 4.16602C13.9166 4.16602 13.7722 4.18052 13.6328 4.20815C13.9724 4.8114 14.1661 5.50775 14.1661 6.24935Z" fill="#1D84C7"/>
<path d="M15.4609 15.8216C17.0693 15.7114 18.3337 14.8369 18.3337 13.7744C18.3337 12.7217 17.0911 11.8536 15.5039 11.7305C15.9532 12.2866 16.2504 12.9631 16.2504 13.7499C16.2504 14.5616 15.9342 15.2558 15.4609 15.8216Z" fill="#1D84C7"/>
</svg>
