<svg width="24" height="24" viewBox="0 0 24 24" fill="none" xmlns="http://www.w3.org/2000/svg">
<g id="loan fill 1">
<path id="Vector" d="M4.16924 23.1849H3.84306C2.65992 23.1849 2.06836 23.1849 1.7008 22.7943C1.33325 22.4038 1.33325 21.7753 1.33325 20.5182V19.0355C1.33325 18.3442 1.33325 17.9986 1.50038 17.6899C1.66751 17.3811 1.91963 17.2254 2.42389 16.9138C5.74369 14.8622 10.4583 13.7074 13.6051 15.7015C13.8164 15.8355 14.0066 15.9973 14.169 16.1911C14.8694 17.027 14.8184 18.2885 14.0113 19.037C13.8407 19.195 13.6592 19.315 13.4762 19.3566C13.6265 19.3381 13.7706 19.3169 13.9081 19.2935C15.0518 19.0997 16.0118 18.4503 16.8908 17.7449L19.1586 15.9247C19.9581 15.283 21.1448 15.2829 21.9444 15.9243C22.6643 16.5019 22.8844 17.4529 22.4293 18.2279C21.8986 19.1319 21.1508 20.2883 20.4327 20.9949C19.7137 21.7025 18.6433 22.3342 17.7693 22.7823C16.8012 23.2789 15.7318 23.5649 14.6439 23.7521C12.4376 24.1314 10.1384 24.0735 7.95453 23.5955C6.71996 23.3253 5.43778 23.1849 4.16924 23.1849Z" fill="#A6A6A6"/>
<path id="Vector_2" d="M3.33387 0.667126C2.89314 1.10785 2.72836 1.71677 2.66675 2.66667C4.13075 2.64714 5.31389 1.46402 5.33341 0C4.38352 0.0616081 3.7746 0.226389 3.33387 0.667126Z" fill="#1D84C7"/>
<path id="Vector_3" d="M18.9993 0.667126C18.3381 0.226389 17.4248 0.0616081 16 0C16.0292 1.46401 17.8039 2.64714 20 2.66667C19.9075 1.71677 19.6604 1.10785 18.9993 0.667126Z" fill="#1D84C7"/>
<path id="Vector_4" d="M18.9993 9.99954C18.3381 10.4403 17.4248 10.6051 16 10.6667C16.0294 9.20265 17.8039 8.01953 20 8C19.9075 8.9499 19.6604 9.55882 18.9993 9.99954Z" fill="#1D84C7"/>
<path id="Vector_5" d="M3.33387 9.99954C3.7746 10.4403 4.38352 10.6051 5.33341 10.6667C5.31389 9.20266 4.13075 8.01953 2.66675 8C2.72836 8.9499 2.89314 9.55882 3.33387 9.99954Z" fill="#1D84C7"/>
<path id="Vector_6" fill-rule="evenodd" clip-rule="evenodd" d="M2.66675 5C5.65829 5 8.08342 2.76143 8.08342 0H14.5834C14.5834 2.76143 17.0085 5 20.0001 5V5.66667C17.0085 5.66667 14.5834 7.90524 14.5834 10.6667H8.08342C8.08342 7.90524 5.65829 5.66667 2.66675 5.66667V5ZM11.3334 6.66667C12.1312 6.66667 12.7779 6.06971 12.7779 5.33333C12.7779 4.59696 12.1312 4 11.3334 4C10.5356 4 9.88897 4.59696 9.88897 5.33333C9.88897 6.06971 10.5356 6.66667 11.3334 6.66667Z" fill="#1D84C7"/>
</g>
</svg>
