<svg width="18" height="18" viewBox="0 0 18 18" fill="none" xmlns="http://www.w3.org/2000/svg">
<g id="Map Point 1">
<path id="Vector" fill-rule="evenodd" clip-rule="evenodd" d="M2.4375 7.60748C2.4375 3.9332 5.36626 0.9375 9 0.9375C12.6337 0.9375 15.5625 3.9332 15.5625 7.60748C15.5625 9.3813 15.057 11.2859 14.1633 12.9314C13.2708 14.5748 11.9667 16.0029 10.3354 16.7654C9.48795 17.1615 8.51205 17.1615 7.66462 16.7654C6.03328 16.0029 4.72922 14.5748 3.83667 12.9314C2.94302 11.2859 2.4375 9.3813 2.4375 7.60748ZM9 2.0625C6.00632 2.0625 3.5625 4.53561 3.5625 7.60748C3.5625 9.1803 4.01447 10.9015 4.82527 12.3945C5.63718 13.8894 6.78451 15.1122 8.14095 15.7463C8.68657 16.0013 9.31343 16.0013 9.85905 15.7463C11.2155 15.1122 12.3628 13.8894 13.1747 12.3945C13.9855 10.9015 14.4375 9.1803 14.4375 7.60748C14.4375 4.53561 11.9937 2.0625 9 2.0625ZM9 5.8125C8.06805 5.8125 7.3125 6.56802 7.3125 7.5C7.3125 8.43195 8.06805 9.1875 9 9.1875C9.93195 9.1875 10.6875 8.43195 10.6875 7.5C10.6875 6.56802 9.93195 5.8125 9 5.8125ZM6.1875 7.5C6.1875 5.9467 7.4467 4.6875 9 4.6875C10.5533 4.6875 11.8125 5.9467 11.8125 7.5C11.8125 9.05332 10.5533 10.3125 9 10.3125C7.4467 10.3125 6.1875 9.05332 6.1875 7.5Z" fill="#1D84C7"/>
</g>
</svg>
