<svg width="16" height="16" viewBox="0 0 16 16" fill="none" xmlns="http://www.w3.org/2000/svg">
<g clip-path="url(#clip0_664_6214)">
<path fill-rule="evenodd" clip-rule="evenodd" d="M3.49992 6.2025V5.33398C3.49992 2.8487 5.51464 0.833984 7.99992 0.833984C10.4852 0.833984 12.4999 2.8487 12.4999 5.33398V6.2025C12.6511 6.21313 12.7937 6.22697 12.9278 6.245C13.5279 6.32568 14.0331 6.49827 14.4344 6.89952C14.8357 7.30085 15.0083 7.80605 15.0889 8.40612C15.1666 8.98412 15.1666 9.71898 15.1666 10.6307V10.7039C15.1666 11.6157 15.1666 12.3505 15.0889 12.9285C15.0083 13.5286 14.8357 14.0338 14.4344 14.4351C14.0331 14.8364 13.5279 15.009 12.9278 15.0897C12.3498 15.1673 11.6149 15.1673 10.7032 15.1673H5.29667C4.38495 15.1673 3.65007 15.1673 3.07209 15.0897C2.47201 15.009 1.96677 14.8364 1.56549 14.4351C1.16421 14.0338 0.991612 13.5286 0.910932 12.9285C0.833226 12.3505 0.833239 11.6157 0.833252 10.7039V10.6307C0.833239 9.71898 0.833226 8.98412 0.910932 8.40612C0.991612 7.80605 1.16421 7.30085 1.56549 6.89952C1.96677 6.49827 2.47201 6.32568 3.07209 6.245C3.20617 6.22697 3.3487 6.21313 3.49992 6.2025ZM4.49992 5.33398C4.49992 3.40099 6.06693 1.83398 7.99992 1.83398C9.93292 1.83398 11.4999 3.40099 11.4999 5.33398V6.16961C11.2509 6.16731 10.9855 6.16731 10.7032 6.16732H5.29667C5.01433 6.16731 4.74894 6.16731 4.49992 6.16961V5.33398ZM2.27259 7.60665C2.4571 7.42212 2.71615 7.30185 3.20533 7.23605C3.7089 7.16838 4.37631 7.16732 5.33325 7.16732H10.6666C11.6235 7.16732 12.2909 7.16838 12.7945 7.23605C13.2837 7.30185 13.5427 7.42212 13.7273 7.60665C13.9118 7.79118 14.0321 8.05018 14.0979 8.53938C14.1655 9.04298 14.1666 9.71038 14.1666 10.6673C14.1666 11.6243 14.1655 12.2917 14.0979 12.7953C14.0321 13.2845 13.9118 13.5435 13.7273 13.728C13.5427 13.9125 13.2837 14.0328 12.7945 14.0986C12.2909 14.1663 11.6235 14.1673 10.6666 14.1673H5.33325C4.37631 14.1673 3.7089 14.1663 3.20533 14.0986C2.71615 14.0328 2.4571 13.9125 2.27259 13.728C2.08809 13.5435 1.96779 13.2845 1.90202 12.7953C1.83431 12.2917 1.83325 11.6243 1.83325 10.6673C1.83325 9.71038 1.83431 9.04298 1.90202 8.53938C1.96779 8.05018 2.08809 7.79118 2.27259 7.60665Z" fill="#A6A6A6"/>
</g>
<defs>
<clipPath id="clip0_664_6214">
<rect width="16" height="16" fill="white"/>
</clipPath>
</defs>
</svg>
