<svg width="32" height="32" viewBox="0 0 32 32" fill="none" xmlns="http://www.w3.org/2000/svg">
<g id="teacher 1">
<g id="16-Teacher">
<path id="Vector" d="M17 1H15C13.4092 1.00178 11.8842 1.63449 10.7593 2.75932C9.63449 3.88416 9.00178 5.40925 9 7V8C9 9.85652 9.7375 11.637 11.0503 12.9497C12.363 14.2625 14.1435 15 16 15C17.8565 15 19.637 14.2625 20.9497 12.9497C22.2625 11.637 23 9.85652 23 8V7C22.9982 5.40925 22.3655 3.88416 21.2407 2.75932C20.1158 1.63449 18.5908 1.00178 17 1Z" fill="#565D69"/>
<path id="Vector_2" d="M21.5 19.5H10.5C8.51154 19.5022 6.60515 20.293 5.1991 21.6991C3.79305 23.1052 3.00217 25.0115 3 27V30.5C2.99996 30.5657 3.01287 30.6307 3.03798 30.6914C3.0631 30.7521 3.09993 30.8072 3.14636 30.8536C3.1928 30.9001 3.24793 30.9369 3.30861 30.962C3.36929 30.9871 3.43433 31 3.5 31H28.5C28.5657 31 28.6307 30.9871 28.6914 30.962C28.7521 30.9369 28.8072 30.9001 28.8536 30.8536C28.9001 30.8072 28.9369 30.7521 28.962 30.6914C28.9871 30.6307 29 30.5657 29 30.5V27C28.9978 25.0115 28.207 23.1052 26.8009 21.6991C25.3948 20.293 23.4885 19.5022 21.5 19.5Z" fill="#68B1FC"/>
<path id="Vector_3" d="M19.1937 31L16.975 24.34C16.9406 24.2412 16.8765 24.1555 16.7914 24.0947C16.7064 24.0338 16.6046 24.0007 16.5 24H15.5C15.3954 24.0007 15.2937 24.0338 15.2086 24.0947C15.1236 24.1555 15.0594 24.2412 15.025 24.34L12.8064 31H19.1937Z" fill="#FCAA52"/>
<path id="Vector_4" d="M18.9351 21.7534C18.8915 21.6765 18.8283 21.6125 18.7518 21.5679C18.6754 21.5234 18.5885 21.5 18.5001 21.5H13.5001C13.4116 21.5 13.3246 21.5234 13.2482 21.568C13.1717 21.6126 13.1085 21.6766 13.0649 21.7537C13.0213 21.8307 12.9989 21.9179 13 22.0064C13.0012 22.0949 13.0258 22.1815 13.0714 22.2573L14.5714 24.7573C14.6158 24.8313 14.6786 24.8926 14.7538 24.9351C14.8289 24.9776 14.9137 25 15.0001 25H17.0001C17.0864 25 17.1712 24.9776 17.2464 24.9351C17.3215 24.8926 17.3843 24.8313 17.4288 24.7573L18.9288 22.2573C18.9743 22.1814 18.999 22.0948 19.0001 22.0062C19.0012 21.9177 18.9788 21.8305 18.9351 21.7534Z" fill="#FCC67C"/>
<g id="Group">
<path id="Vector_5" d="M19 16H13C12.9343 16 12.8693 16.0129 12.8086 16.038C12.748 16.0631 12.6928 16.1 12.6464 16.1464C12.6 16.1928 12.5631 16.248 12.538 16.3086C12.5129 16.3693 12.5 16.4343 12.5 16.5V19.5C12.5 19.5733 12.5161 19.6457 12.5472 19.7121C12.5782 19.7785 12.6235 19.8373 12.6797 19.8843L15.6797 22.3843C15.7697 22.4591 15.883 22.5 16 22.5C16.117 22.5 16.2303 22.4591 16.3203 22.3843L19.3203 19.8843C19.3765 19.8373 19.4218 19.7785 19.4528 19.7121C19.4839 19.6457 19.5 19.5733 19.5 19.5V16.5C19.5 16.4343 19.4871 16.3693 19.462 16.3086C19.4369 16.248 19.4 16.1928 19.3536 16.1464C19.3072 16.1 19.252 16.0631 19.1914 16.038C19.1307 16.0129 19.0657 16 19 16Z" fill="#FDCA99"/>
<path id="Vector_6" d="M11.5 10H10C9.60231 10.0004 9.22103 10.1586 8.93982 10.4398C8.65861 10.721 8.50043 11.1023 8.5 11.5V12C8.50078 12.6628 8.76442 13.2982 9.23309 13.7669C9.70176 14.2356 10.3372 14.4992 11 14.5H11.5C11.5657 14.5 11.6307 14.4871 11.6914 14.462C11.752 14.4369 11.8072 14.4 11.8536 14.3536C11.9 14.3072 11.9369 14.252 11.962 14.1914C11.9871 14.1307 12 14.0657 12 14V10.5C12 10.4343 11.9871 10.3693 11.962 10.3086C11.9369 10.248 11.9 10.1928 11.8536 10.1464C11.8072 10.1 11.752 10.0631 11.6914 10.038C11.6307 10.0129 11.5657 9.99998 11.5 10Z" fill="#FDCA99"/>
<path id="Vector_7" d="M22 10H20.5C20.4343 9.99998 20.3693 10.0129 20.3086 10.038C20.248 10.0631 20.1928 10.1 20.1464 10.1464C20.1 10.1928 20.0631 10.248 20.038 10.3086C20.0129 10.3693 20 10.4343 20 10.5V14C20 14.0657 20.0129 14.1307 20.038 14.1914C20.0631 14.252 20.1 14.3072 20.1464 14.3536C20.1928 14.4 20.248 14.4369 20.3086 14.462C20.3693 14.4871 20.4343 14.5 20.5 14.5H21C21.6628 14.4992 22.2982 14.2356 22.7669 13.7669C23.2356 13.2982 23.4992 12.6628 23.5 12V11.5C23.4996 11.1023 23.3414 10.721 23.0602 10.4398C22.779 10.1586 22.3977 10.0004 22 10Z" fill="#FDCA99"/>
</g>
<path id="Vector_8" d="M16.3251 21.6203L12.8251 18.6203C12.7424 18.5495 12.6387 18.5075 12.53 18.5009C12.4212 18.4943 12.3133 18.5234 12.2226 18.5837L10.7226 19.5837C10.6402 19.6387 10.576 19.7169 10.5381 19.8085C10.5002 19.9 10.4903 20.0007 10.5097 20.0979L11.5097 25.0979C11.5262 25.1807 11.5635 25.258 11.618 25.3225C11.6725 25.387 11.7425 25.4367 11.8214 25.4668C11.9003 25.497 11.9856 25.5066 12.0692 25.4949C12.1529 25.4831 12.2322 25.4503 12.2997 25.3996L16.2997 22.3996C16.3596 22.3547 16.4086 22.297 16.4432 22.2306C16.4778 22.1642 16.497 22.0909 16.4994 22.0161C16.5018 21.9413 16.4875 21.8669 16.4573 21.7984C16.4271 21.7299 16.3819 21.669 16.3251 21.6203Z" fill="#84C2FC"/>
<path id="Vector_9" d="M21.2774 19.5837L19.7774 18.5837C19.6866 18.5234 19.5787 18.4943 19.4699 18.5009C19.3612 18.5075 19.2576 18.5494 19.1748 18.6203L15.6748 21.6203C15.618 21.669 15.5728 21.7298 15.5426 21.7983C15.5125 21.8668 15.4981 21.9412 15.5005 22.016C15.5029 22.0908 15.5222 22.1641 15.5567 22.2305C15.5913 22.2969 15.6403 22.3547 15.7002 22.3996L19.7002 25.3996C19.7678 25.4503 19.8471 25.4831 19.9307 25.4949C20.0144 25.5066 20.0996 25.497 20.1785 25.4669C20.2575 25.4367 20.3274 25.3871 20.382 25.3225C20.4365 25.258 20.4737 25.1807 20.4902 25.0978L21.4902 20.0978C21.5096 20.0007 21.4997 19.9 21.4618 19.8084C21.424 19.7169 21.3597 19.6387 21.2774 19.5837Z" fill="#84C2FC"/>
<path id="Vector_10" d="M7.5 27C7.43433 27 7.36929 27.0129 7.30861 27.038C7.24793 27.0631 7.1928 27.0999 7.14636 27.1464C7.09993 27.1928 7.0631 27.2479 7.03798 27.3086C7.01287 27.3693 6.99996 27.4343 7 27.5V31H8V27.5C8.00004 27.4343 7.98713 27.3693 7.96202 27.3086C7.9369 27.2479 7.90007 27.1928 7.85364 27.1464C7.8072 27.0999 7.75207 27.0631 7.69139 27.038C7.63071 27.0129 7.56567 27 7.5 27Z" fill="#539FFB"/>
<path id="Vector_11" d="M24.5 27C24.4343 27 24.3693 27.0129 24.3086 27.038C24.2479 27.0631 24.1928 27.0999 24.1464 27.1464C24.0999 27.1928 24.0631 27.2479 24.038 27.3086C24.0129 27.3693 24 27.4343 24 27.5V31H25V27.5C25 27.4343 24.9871 27.3693 24.962 27.3086C24.9369 27.2479 24.9001 27.1928 24.8536 27.1464C24.8072 27.0999 24.7521 27.0631 24.6914 27.038C24.6307 27.0129 24.5657 27 24.5 27Z" fill="#539FFB"/>
<path id="Vector_12" d="M21.5 10.0002V13.0002C21.5 14.4588 20.9205 15.8578 19.8891 16.8892C18.8576 17.9207 17.4587 18.5002 16 18.5002C14.5413 18.5002 13.1424 17.9207 12.1109 16.8892C11.0795 15.8578 10.5 14.4588 10.5 13.0002V10.0002H10.85C10.85 10.0002 11.705 9.49516 12.14 7.28516C13.3745 7.74917 14.6812 7.99123 16 8.00016C17.3188 7.99123 18.6255 7.74917 19.86 7.28516C20.295 9.49516 21.15 10.0002 21.15 10.0002H21.5Z" fill="#FDD5A6"/>
</g>
</g>
</svg>
