<svg width="18" height="18" viewBox="0 0 18 18" fill="none" xmlns="http://www.w3.org/2000/svg">
<g id="Point On Map 1">
<path id="Vector" fill-rule="evenodd" clip-rule="evenodd" d="M3.9375 5.77523C3.9375 3.07661 6.23157 0.9375 9 0.9375C11.706 0.9375 13.9587 2.98116 14.0591 5.59341L14.4173 5.71285C14.7647 5.82861 15.0692 5.93007 15.3107 6.04243C15.5717 6.1639 15.8111 6.32035 15.994 6.57415C16.1769 6.82796 16.2497 7.10444 16.2824 7.39055C16.3126 7.65525 16.3125 7.9761 16.3125 8.34225V12.6534C16.3125 13.1105 16.3126 13.5004 16.2771 13.8132C16.2398 14.1422 16.1564 14.4656 15.9303 14.7415C15.8006 14.8999 15.643 15.0334 15.4654 15.1354C15.1561 15.313 14.8234 15.3421 14.4927 15.3248C14.1783 15.3083 13.7936 15.2442 13.3428 15.1691L13.3116 15.1639C12.342 15.0022 11.9513 14.9412 11.5706 14.9731C11.4313 14.9847 11.2928 15.0056 11.1563 15.0353C10.7831 15.1168 10.4241 15.2918 9.537 15.7354C9.50618 15.7508 9.47565 15.7661 9.4455 15.7811C8.40855 16.2998 7.76963 16.6194 7.08023 16.7192C6.87288 16.7492 6.66362 16.7642 6.4541 16.7637C5.75751 16.7624 5.08496 16.5381 3.99402 16.1743C3.96246 16.1638 3.93056 16.1531 3.89829 16.1423L3.61061 16.0465L3.58263 16.0371C3.2353 15.9214 2.93087 15.8199 2.68935 15.7076C2.42825 15.5861 2.18896 15.4297 2.00603 15.1759C1.8231 14.9221 1.75034 14.6456 1.71768 14.3594C1.68746 14.0948 1.68748 13.7739 1.6875 13.4078V9.6429C1.68748 9.05332 1.68746 8.55637 1.73797 8.16712C1.79069 7.76085 1.90989 7.36358 2.23697 7.06485C2.33312 6.97703 2.4391 6.90064 2.55281 6.83719C2.93965 6.62137 3.3542 6.63391 3.75631 6.71237C3.83788 6.72829 3.92332 6.74789 4.01264 6.77066C3.96308 6.43628 3.9375 6.10292 3.9375 5.77523ZM4.31152 8.03197C3.99054 7.92847 3.74418 7.85625 3.54085 7.81658C3.24449 7.75875 3.14735 7.79378 3.10094 7.81965C3.06304 7.8408 3.02771 7.86623 2.99566 7.89555C2.95643 7.93132 2.89247 8.01248 2.85362 8.31188C2.81363 8.61998 2.8125 9.04313 2.8125 9.681V13.3783C2.8125 13.7826 2.81336 14.0386 2.83541 14.2318C2.85584 14.4107 2.88926 14.4773 2.91868 14.5181C2.9481 14.5589 3.00062 14.6116 3.16387 14.6876C3.34023 14.7696 3.58282 14.8513 3.96637 14.9792L4.25404 15.0751C5.47172 15.481 5.96317 15.6378 6.45623 15.6387C6.61109 15.639 6.76576 15.628 6.91903 15.6059C7.40687 15.5352 7.87568 15.3083 9.0339 14.7292C9.05738 14.7174 9.08055 14.7059 9.1035 14.6944C9.89903 14.2965 10.389 14.0514 10.9163 13.9363C11.1011 13.8959 11.2883 13.8677 11.4767 13.852C12.0145 13.807 12.5508 13.8964 13.4209 14.0416C13.4459 14.0457 13.4711 14.0499 13.4966 14.0542C13.9873 14.1359 14.3084 14.1886 14.5514 14.2013C14.7854 14.2136 14.8658 14.1824 14.9051 14.1598C14.9643 14.1258 15.0169 14.0812 15.0601 14.0285C15.0889 13.9933 15.1328 13.9192 15.1592 13.6865C15.1867 13.4446 15.1875 13.1192 15.1875 12.6217V8.37173C15.1875 7.9674 15.1867 7.71143 15.1646 7.51815C15.1442 7.33928 15.1108 7.27277 15.0813 7.23196C15.0519 7.19113 14.9994 7.1384 14.8361 7.06246C14.6598 6.98041 14.4172 6.89866 14.0336 6.7708L13.9895 6.7561C13.8469 7.73213 13.4997 8.71748 12.988 9.59693C12.3036 10.773 11.3023 11.7974 10.0478 12.3446C9.38205 12.6351 8.61795 12.6351 7.95218 12.3446C6.6977 11.7974 5.69639 10.773 5.01205 9.59693C4.72403 9.102 4.48815 8.57347 4.31152 8.03197ZM9 2.0625C6.79787 2.0625 5.0625 3.75156 5.0625 5.77523C5.0625 6.83831 5.39058 8.0106 5.98442 9.03113C6.57841 10.052 7.41565 10.8832 8.40203 11.3135C8.781 11.4788 9.219 11.4788 9.59798 11.3135C10.5844 10.8832 11.4216 10.052 12.0156 9.03113C12.6095 8.0106 12.9375 6.83831 12.9375 5.77523C12.9375 3.75156 11.2022 2.0625 9 2.0625ZM9 5.0625C8.4822 5.0625 8.0625 5.48223 8.0625 6C8.0625 6.51777 8.4822 6.9375 9 6.9375C9.5178 6.9375 9.9375 6.51777 9.9375 6C9.9375 5.48223 9.5178 5.0625 9 5.0625ZM6.9375 6C6.9375 4.86091 7.8609 3.9375 9 3.9375C10.1391 3.9375 11.0625 4.86091 11.0625 6C11.0625 7.13908 10.1391 8.0625 9 8.0625C7.8609 8.0625 6.9375 7.13908 6.9375 6Z" fill="#1D84C7"/>
</g>
</svg>
