<svg width="22" height="22" viewBox="0 0 22 22" fill="none" xmlns="http://www.w3.org/2000/svg">
<g id="Component 5">
<path id="Vector" d="M20.1666 11.0007C20.1666 15.3218 20.1666 17.4825 18.8241 18.8249C17.4818 20.1673 15.3211 20.1673 10.9999 20.1673C6.67871 20.1673 4.5181 20.1673 3.17568 18.8249C1.83325 17.4825 1.83325 15.3218 1.83325 11.0007C1.83325 6.67944 1.83325 4.51884 3.17568 3.17642C4.5181 1.83398 6.67871 1.83398 10.9999 1.83398" stroke="#A6A6A6" stroke-width="1.5" stroke-linecap="round"/>
<path id="Vector_2" d="M1.83325 11.4578L3.43888 10.0529C4.27421 9.32201 5.53318 9.36391 6.31803 10.1488L10.2503 14.081C10.8802 14.711 11.8719 14.7969 12.6008 14.2846L12.8741 14.0925C13.923 13.3553 15.3421 13.4408 16.295 14.2984L19.2499 16.9578" stroke="#A6A6A6" stroke-width="1.5" stroke-linecap="round"/>
<path id="Vector_3" d="M16.4999 3.63639L16.0125 4.12123C16.1415 4.25095 16.317 4.32389 16.4999 4.32389C16.6829 4.32389 16.8583 4.25095 16.9873 4.12123L16.4999 3.63639ZM15.1728 7.33588C14.7274 6.94892 14.2996 6.51603 13.988 6.07645C13.6698 5.62765 13.5208 5.23919 13.5208 4.92663H12.1458C12.1458 5.64817 12.4736 6.31781 12.8662 6.87158C13.2652 7.43458 13.7817 7.94876 14.271 8.37386L15.1728 7.33588ZM13.5208 4.92663C13.5208 4.07113 13.9055 3.63921 14.2853 3.49941C14.676 3.35559 15.3204 3.4255 16.0125 4.12123L16.9873 3.15155C16.0294 2.18849 14.8405 1.82987 13.8104 2.20904C12.7694 2.59223 12.1458 3.63482 12.1458 4.92663H13.5208ZM18.7288 8.37387C19.2182 7.94877 19.7347 7.43459 20.1337 6.87159C20.5262 6.31781 20.8541 5.64817 20.8541 4.92662H19.4791C19.4791 5.2392 19.33 5.62767 19.0119 6.07646C18.7003 6.51604 18.2725 6.94893 17.8271 7.33589L18.7288 8.37387ZM20.8541 4.92662C20.8541 3.63481 20.2305 2.59222 19.1894 2.20904C18.1594 1.82987 16.9704 2.18849 16.0125 3.15155L16.9873 4.12123C17.6794 3.4255 18.3238 3.35559 18.7145 3.49941C19.0944 3.63921 19.4791 4.07112 19.4791 4.92662H20.8541ZM14.271 8.37386C14.9647 8.97653 15.5182 9.49179 16.4999 9.49179V8.11684C16.1114 8.11684 15.9363 7.99916 15.1728 7.33588L14.271 8.37386ZM17.8271 7.33589C17.0636 7.99917 16.8885 8.11684 16.4999 8.11684V9.49179C17.4817 9.49189 18.0352 8.97654 18.7288 8.37387L17.8271 7.33589Z" fill="#A6A6A6"/>
</g>
</svg>
