<svg width="32" height="32" viewBox="0 0 32 32" fill="none" xmlns="http://www.w3.org/2000/svg">
<g id="fi_6231773" clip-path="url(#clip0_247_17977)">
<path id="Vector" d="M27.7333 7.4668V23.4668C27.7333 23.7497 27.6209 24.021 27.4209 24.221C27.2208 24.4211 26.9495 24.5335 26.6666 24.5335H3.19997C2.91733 24.5326 2.64651 24.42 2.44665 24.2201C2.2468 24.0203 2.13414 23.7494 2.1333 23.4668V7.4668H27.7333Z" fill="#E8EFEF"/>
<path id="Vector_2" d="M29.2372 5.3332C29.1837 5.21607 29.1097 5.10949 29.0185 5.01854L25.0025 1.00254C24.7023 0.703133 24.2959 0.53445 23.8719 0.533203H5.99454C5.57052 0.53445 5.16414 0.703133 4.86388 1.00254L0.847878 5.01854C0.756745 5.10949 0.682681 5.21607 0.629211 5.3332C0.565374 5.47201 0.532611 5.62309 0.533211 5.77587V6.9332C0.534055 7.21584 0.646707 7.48666 0.846563 7.68652C1.04642 7.88637 1.31724 7.99903 1.59988 7.99987H28.2665C28.5492 7.99903 28.82 7.88637 29.0199 7.68652C29.2197 7.48666 29.3324 7.21584 29.3332 6.9332V5.77587C29.3338 5.62309 29.3011 5.47201 29.2372 5.3332Z" fill="#61C1FF"/>
<path id="Vector_3" d="M6.3999 5.33398H11.7332V8.00065H6.3999V5.33398Z" fill="#DAE5E5"/>
<path id="Vector_4" d="M18.1333 5.33398H23.4666V8.00065H18.1333V5.33398Z" fill="#DAE5E5"/>
<path id="Vector_5" d="M29.2373 5.3332H23.4666L20.2666 0.533203H23.8719C24.296 0.53445 24.7023 0.703133 25.0026 1.00254L29.0186 5.01854C29.1097 5.10949 29.1838 5.21607 29.2373 5.3332Z" fill="#1F85C7"/>
<path id="Vector_6" d="M23.4665 5.3332H18.1332L16.5332 0.533203H20.2665L23.4665 5.3332Z" fill="#BCCCCB"/>
<path id="Vector_7" d="M18.1334 5.3332H11.7334L13.3334 0.533203H16.5334L18.1334 5.3332Z" fill="#1F85C7"/>
<path id="Vector_8" d="M13.3332 0.533203L11.7332 5.3332H6.3999L9.5999 0.533203H13.3332Z" fill="#BCCCCB"/>
<path id="Vector_9" d="M9.60006 0.533203L6.40006 5.3332H0.629395C0.682864 5.21607 0.756928 5.10949 0.848061 5.01854L4.86406 1.00254C5.16433 0.703133 5.5707 0.53445 5.99473 0.533203H9.60006Z" fill="#1F85C7"/>
<path id="Vector_10" d="M20.2667 19.1992H14.9334C14.6507 19.1984 14.3799 19.0857 14.1801 18.8859C13.9802 18.686 13.8675 18.4152 13.8667 18.1326V12.2659C13.8675 11.9832 13.9802 11.7124 14.1801 11.5126C14.3799 11.3127 14.6507 11.2001 14.9334 11.1992H24.5334C24.816 11.2001 25.0868 11.3127 25.2867 11.5126C25.4865 11.7124 25.5992 11.9832 25.6 12.2659V13.3646L20.2667 19.1992Z" fill="#49A9EA"/>
<path id="Vector_11" d="M4.2666 24.5326V12.2659C4.26745 11.9832 4.3801 11.7124 4.57995 11.5126C4.77981 11.3127 5.05063 11.2001 5.33327 11.1992H10.6666C10.9492 11.2001 11.2201 11.3127 11.4199 11.5126C11.6198 11.7124 11.7324 11.9832 11.7333 12.2659V24.5326H4.2666Z" fill="#8F5C4A"/>
<path id="Vector_12" d="M29.7812 24.6191C30.2659 24.99 30.6667 25.4593 30.9572 25.9961C31.2477 26.5329 31.4213 27.1251 31.4665 27.7338V30.9338C31.4665 31.0753 31.4103 31.2109 31.3103 31.3109C31.2103 31.411 31.0746 31.4671 30.9332 31.4671H19.1998C19.0584 31.4671 18.9227 31.411 18.8227 31.3109C18.7227 31.2109 18.6665 31.0753 18.6665 30.9338V27.7338C18.7118 27.1251 18.8853 26.5329 19.1758 25.9961C19.4663 25.4593 19.8671 24.99 20.3518 24.6191H29.7812Z" fill="#414A5E"/>
<path id="Vector_13" d="M29.8666 20.2674V18.0908C29.8638 17.4633 29.7374 16.8425 29.4947 16.2638C29.2519 15.6851 28.8976 15.1599 28.4519 14.7182C28.0061 14.2765 27.4778 13.9269 26.8969 13.6894C26.3161 13.4519 25.6941 13.3312 25.0666 13.334C24.4391 13.3312 23.8171 13.4519 23.2363 13.6894C22.6554 13.9269 22.1271 14.2765 21.6813 14.7182C21.2356 15.1599 20.8813 15.6851 20.6385 16.2638C20.3958 16.8425 20.2694 17.4633 20.2666 18.0908V20.2674H29.8666Z" fill="#543C34"/>
<path id="Vector_14" d="M29.7814 24.6196L27.7441 26.6569C27.5993 26.8003 27.4038 26.8808 27.2001 26.8808C26.9963 26.8808 26.8008 26.8003 26.6561 26.6569L25.0667 25.0676L23.4774 26.6569C23.3327 26.8003 23.1371 26.8808 22.9334 26.8808C22.7296 26.8808 22.5341 26.8003 22.3894 26.6569L20.3521 24.6196C20.8721 24.1751 21.4636 23.8217 22.1014 23.5742H28.0321C28.6699 23.8217 29.2613 24.1751 29.7814 24.6196Z" fill="#DAE5E5"/>
<path id="Vector_15" d="M23.3491 26.7571L23.9998 27.7331H26.1331L26.7838 26.7571L25.0665 25.0664L23.3491 26.7571Z" fill="#EB6374"/>
<path id="Vector_16" d="M26.6668 31.4658L26.1335 27.7324H24.0001L23.4668 31.4658H26.6668Z" fill="#C74C5E"/>
<path id="Vector_17" d="M21.2266 19.3059C20.972 19.3059 20.7278 19.407 20.5478 19.587C20.3677 19.7671 20.2666 20.0113 20.2666 20.2659C20.2666 20.5205 20.3677 20.7646 20.5478 20.9447C20.7278 21.1247 20.972 21.2259 21.2266 21.2259L21.3962 22.2392C21.4494 22.5606 21.5674 22.8679 21.7432 23.1423C21.919 23.4166 22.1488 23.6523 22.4186 23.8349C23.0682 24.2739 24.0191 25.0659 25.0666 25.0659C26.1141 25.0659 27.065 24.2739 27.7146 23.836C27.9845 23.6532 28.2144 23.4174 28.3902 23.1428C28.566 22.8683 28.684 22.5608 28.737 22.2392L28.9066 21.2259C29.1612 21.2259 29.4054 21.1247 29.5854 20.9447C29.7655 20.7646 29.8666 20.5205 29.8666 20.2659C29.8666 20.0113 29.7655 19.7671 29.5854 19.587C29.4054 19.407 29.1612 19.3059 28.9066 19.3059C28.9279 19.0246 28.849 18.7448 28.6839 18.5161C28.5187 18.2873 28.2779 18.1245 28.0042 18.0563C27.0646 17.9383 26.159 17.6298 25.3429 17.1496C25.2605 17.0966 25.1646 17.0684 25.0666 17.0684C24.9686 17.0684 24.8727 17.0966 24.7903 17.1496C23.9742 17.6298 23.0686 17.9383 22.129 18.0563C21.8553 18.1245 21.6145 18.2873 21.4493 18.5161C21.2842 18.7448 21.2053 19.0246 21.2266 19.3059Z" fill="#F2C8B6"/>
</g>
<defs>
<clipPath id="clip0_247_17977">
<rect width="32" height="32" fill="white"/>
</clipPath>
</defs>
</svg>
