<svg width="16" height="16" viewBox="0 0 16 16" fill="none" xmlns="http://www.w3.org/2000/svg">
<g id="nav" clip-path="url(#clip0_247_18877)">
<path id="Vector" d="M14.6668 8.00065C14.6668 8.87612 14.4944 9.74305 14.1594 10.5519C13.8243 11.3607 13.3333 12.0957 12.7142 12.7147C12.0952 13.3338 11.3602 13.8248 10.5514 14.1599C9.74256 14.4949 8.87563 14.6673 8.00016 14.6673C7.1247 14.6673 6.25778 14.4949 5.44894 14.1599C4.6401 13.8248 3.90518 13.3338 3.28612 12.7147C2.66706 12.0957 2.176 11.3607 1.84096 10.5519C1.50594 9.74305 1.3335 8.87612 1.3335 8.00065C1.3335 7.12518 1.50594 6.25826 1.84097 5.44942C2.176 4.64059 2.66706 3.90566 3.28612 3.2866C3.90518 2.66755 4.6401 2.17648 5.44894 1.84145C6.25778 1.50642 7.1247 1.33398 8.00016 1.33398C8.87563 1.33398 9.74256 1.50642 10.5514 1.84146C11.3602 2.17648 12.0952 2.66755 12.7142 3.2866C13.3333 3.90566 13.8243 4.64059 14.1594 5.44943C14.4944 6.25826 14.6668 7.12518 14.6668 8.00065Z" stroke="#1D84C7" stroke-width="1.5"/>
<path id="Vector_2" d="M10.6668 8.00065C10.6668 8.87612 10.5978 9.74305 10.4638 10.5519C10.3298 11.3607 10.1334 12.0957 9.88576 12.7147C9.63816 13.3338 9.34416 13.8248 9.02063 14.1599C8.6971 14.4949 8.35036 14.6673 8.00016 14.6673C7.64996 14.6673 7.30323 14.4949 6.9797 14.1599C6.65614 13.8248 6.36217 13.3338 6.11454 12.7147C5.86692 12.0957 5.6705 11.3607 5.53648 10.5519C5.40247 9.74305 5.3335 8.87612 5.3335 8.00065C5.3335 7.12518 5.40247 6.25826 5.53648 5.44942C5.6705 4.64059 5.86692 3.90566 6.11454 3.2866C6.36217 2.66755 6.65614 2.17648 6.9797 1.84145C7.30323 1.50642 7.64996 1.33398 8.00016 1.33398C8.35036 1.33398 8.6971 1.50642 9.02063 1.84146C9.34416 2.17648 9.63816 2.66755 9.88576 3.2866C10.1334 3.90566 10.3298 4.64059 10.4638 5.44943C10.5978 6.25826 10.6668 7.12518 10.6668 8.00065Z" stroke="#1D84C7" stroke-width="1.5"/>
<path id="Vector_3" d="M1.3335 8H14.6668" stroke="#1D84C7" stroke-width="1.5" stroke-linecap="round"/>
</g>
<defs>
<clipPath id="clip0_247_18877">
<rect width="16" height="16" fill="white"/>
</clipPath>
</defs>
</svg>
