<svg width="20" height="20" viewBox="0 0 20 20" fill="none" xmlns="http://www.w3.org/2000/svg">
<g id="Notes">
<path id="Vector" d="M16.9263 10.5388L17.3577 8.92885C17.8612 7.04963 18.1129 6.11001 17.9233 5.29687C17.7737 4.65482 17.4369 4.07158 16.9558 3.62091C16.3463 3.05014 15.4067 2.79837 13.5275 2.29483C11.6483 1.79129 10.7086 1.53952 9.8955 1.72912C9.25342 1.87882 8.67017 2.21556 8.21951 2.69674C7.73083 3.2185 7.47598 3.98232 7.09676 5.37069C7.03308 5.60385 6.96588 5.85462 6.89348 6.12482L6.46207 7.73487C5.95853 9.6141 5.70676 10.5537 5.89636 11.3668C6.04606 12.0089 6.38279 12.5922 6.86398 13.0428C7.47338 13.6136 8.413 13.8653 10.2923 14.3689C11.9861 14.8228 12.9165 15.0721 13.6791 14.978C13.7626 14.9678 13.844 14.9533 13.9243 14.9346C14.5663 14.7849 15.1495 14.4482 15.6002 13.967C16.1709 13.3576 16.4228 12.418 16.9263 10.5388Z" stroke="#1D84C7" stroke-width="1.5"/>
<path id="Vector_2" d="M13.6792 14.9784C13.5055 15.5105 13.2 15.9918 12.7892 16.3766C12.1798 16.9473 11.2402 17.1991 9.361 17.7027C7.48173 18.2062 6.54211 18.4579 5.72896 18.2683C5.08692 18.1187 4.50368 17.7819 4.05301 17.3008C3.48224 16.6913 3.23047 15.7518 2.72693 13.8725L2.29556 12.2626C1.79202 10.3833 1.54026 9.44375 1.72986 8.63059C1.87956 7.98856 2.21629 7.40532 2.69747 6.95464C3.30687 6.38388 4.24649 6.13211 6.12572 5.62857C6.48126 5.5333 6.80315 5.44705 7.09692 5.37109" stroke="#1D84C7" stroke-width="1.5"/>
<path id="Vector_3" d="M9.81396 8.33398L13.8386 9.4124" stroke="#1D84C7" stroke-width="1.5" stroke-linecap="round"/>
<path id="Vector_4" d="M9.16675 10.748L11.5816 11.395" stroke="#1D84C7" stroke-width="1.5" stroke-linecap="round"/>
</g>
</svg>
