<svg width="28" height="28" viewBox="0 0 28 28" fill="none" xmlns="http://www.w3.org/2000/svg">
<g id="doc 1">
<path id="Vector" fill-rule="evenodd" clip-rule="evenodd" d="M11.6668 4.66602H16.3335C20.7332 4.66602 22.9332 4.66602 24.3 6.03285C25.6668 7.39969 25.6668 9.59957 25.6668 13.9993C25.6668 18.3991 25.6668 20.5991 24.3 21.9658C22.9332 23.3327 20.7332 23.3327 16.3335 23.3327H11.6668C7.26705 23.3327 5.06717 23.3327 3.70033 21.9658C2.3335 20.5991 2.3335 18.3991 2.3335 13.9993C2.3335 9.59957 2.3335 7.39969 3.70033 6.03285C5.06717 4.66602 7.26705 4.66602 11.6668 4.66602ZM15.4585 10.4993C15.4585 10.0161 15.8503 9.62435 16.3335 9.62435H22.1668C22.6501 9.62435 23.0418 10.0161 23.0418 10.4993C23.0418 10.9826 22.6501 11.3743 22.1668 11.3743H16.3335C15.8503 11.3743 15.4585 10.9826 15.4585 10.4993ZM16.6252 13.9993C16.6252 13.5161 17.0169 13.1243 17.5002 13.1243H22.1668C22.6501 13.1243 23.0418 13.5161 23.0418 13.9993C23.0418 14.4826 22.6501 14.8743 22.1668 14.8743H17.5002C17.0169 14.8743 16.6252 14.4826 16.6252 13.9993ZM17.7918 17.4993C17.7918 17.0161 18.1836 16.6243 18.6668 16.6243H22.1668C22.6501 16.6243 23.0418 17.0161 23.0418 17.4993C23.0418 17.9826 22.6501 18.3743 22.1668 18.3743H18.6668C18.1836 18.3743 17.7918 17.9826 17.7918 17.4993ZM12.8335 10.4993C12.8335 11.788 11.7889 12.8327 10.5002 12.8327C9.2115 12.8327 8.16683 11.788 8.16683 10.4993C8.16683 9.21068 9.2115 8.16602 10.5002 8.16602C11.7889 8.16602 12.8335 9.21068 12.8335 10.4993ZM10.5002 19.8327C15.1668 19.8327 15.1668 18.788 15.1668 17.4993C15.1668 16.2106 13.0774 15.166 10.5002 15.166C7.92283 15.166 5.8335 16.2106 5.8335 17.4993C5.8335 18.788 5.8335 19.8327 10.5002 19.8327Z" fill="#1D84C7"/>
</g>
</svg>
