<svg width="30" height="30" viewBox="0 0 30 30" fill="none" xmlns="http://www.w3.org/2000/svg">
<g id="Gallery 1">
<path id="Vector" d="M22.5 10C22.5 11.3807 21.3807 12.5 20 12.5C18.6193 12.5 17.5 11.3807 17.5 10C17.5 8.61929 18.6193 7.5 20 7.5C21.3807 7.5 22.5 8.61929 22.5 10Z" fill="#A6A6A6"/>
<path id="Vector_2" fill-rule="evenodd" clip-rule="evenodd" d="M14.9283 1.5625H15.0717C17.9572 1.56249 20.2185 1.56248 21.9829 1.79969C23.7887 2.04249 25.2139 2.54916 26.3324 3.66768C27.4509 4.78619 27.9575 6.21121 28.2004 8.01714C28.4375 9.78149 28.4375 12.0428 28.4375 14.9283V15.0386C28.4375 17.4246 28.4375 19.3779 28.3079 20.9681C28.1777 22.5664 27.9109 23.9017 27.3136 25.0109C27.0501 25.5001 26.7265 25.9383 26.3324 26.3324C25.2139 27.4509 23.7887 27.9575 21.9829 28.2004C20.2185 28.4375 17.9572 28.4375 15.0717 28.4375H14.9283C12.0428 28.4375 9.78149 28.4375 8.01714 28.2004C6.21121 27.9575 4.78619 27.4509 3.66768 26.3324C2.67608 25.3408 2.164 24.1065 1.89169 22.5755C1.62419 21.0716 1.57525 19.2004 1.56509 16.8769C1.5625 16.2859 1.5625 15.6608 1.5625 15.0013V14.9283C1.56249 12.0428 1.56248 9.78149 1.79969 8.01714C2.04249 6.21121 2.54916 4.78619 3.66768 3.66768C4.78619 2.54916 6.21121 2.04249 8.01714 1.79969C9.78149 1.56248 12.0428 1.56249 14.9283 1.5625ZM8.26698 3.65796C6.66896 3.87281 5.70556 4.28143 4.9935 4.9935C4.28143 5.70556 3.87281 6.66896 3.65796 8.26698C3.43949 9.89195 3.4375 12.0272 3.4375 15C3.4375 15.3631 3.4375 15.7144 3.43793 16.0544L4.68935 14.9594C5.82844 13.9627 7.54521 14.0199 8.61548 15.0901L13.9776 20.4522C14.8366 21.3114 16.1889 21.4285 17.1829 20.7299L17.5556 20.468C18.9859 19.4627 20.921 19.5793 22.2205 20.7488L25.7585 23.9329C26.1146 23.185 26.3261 22.2023 26.4391 20.8159C26.5618 19.3103 26.5625 17.4324 26.5625 15C26.5625 12.0272 26.5605 9.89195 26.342 8.26698C26.1273 6.66896 25.7186 5.70556 25.0065 4.9935C24.2944 4.28143 23.331 3.87281 21.733 3.65796C20.108 3.43949 17.9727 3.4375 15 3.4375C12.0272 3.4375 9.89195 3.43949 8.26698 3.65796Z" fill="#A6A6A6"/>
</g>
</svg>
