<svg width="20" height="20" viewBox="0 0 20 20" fill="none" xmlns="http://www.w3.org/2000/svg">
<g id="my product 1">
<path id="Vector" d="M2.91675 9.16602V11.666C2.91675 14.8087 2.91675 16.3801 3.89306 17.3563C4.86937 18.3327 6.44071 18.3327 9.58342 18.3327H10.4167C13.5594 18.3327 15.1308 18.3327 16.1071 17.3563C17.0834 16.3801 17.0834 14.8087 17.0834 11.666V9.16602" stroke="#1D84C7" stroke-width="1.5"/>
<path id="Vector_2" d="M7.91658 1.66602H12.0832L12.6263 7.09716C12.7817 8.65102 11.5615 9.99935 9.9999 9.99935C8.43832 9.99935 7.21808 8.65102 7.37346 7.09716L7.91658 1.66602Z" stroke="#1D84C7" stroke-width="1.5"/>
<path id="Vector_3" d="M2.77471 4.45879C2.92311 3.71679 2.99731 3.34579 3.14818 3.04505C3.46607 2.41134 4.03808 1.94242 4.72182 1.75497C5.04631 1.66602 5.42465 1.66602 6.18134 1.66602H7.9166L7.31283 7.70374C7.18251 9.00693 6.0859 9.99935 4.77621 9.99935C3.1675 9.99935 1.96095 8.5276 2.27644 6.95012L2.77471 4.45879Z" stroke="#1D84C7" stroke-width="1.5"/>
<path id="Vector_4" d="M17.2252 4.45879C17.0768 3.71679 17.0025 3.34579 16.8517 3.04505C16.5338 2.41134 15.9618 1.94242 15.278 1.75497C14.9535 1.66602 14.5752 1.66602 13.8185 1.66602H12.0833L12.687 7.70374C12.8173 9.00693 13.9139 9.99935 15.2237 9.99935C16.8323 9.99935 18.0389 8.5276 17.7234 6.95012L17.2252 4.45879Z" stroke="#1D84C7" stroke-width="1.5"/>
<path id="Vector_5" d="M7.91675 17.9173V15.4173C7.91675 14.6385 7.91675 14.2491 8.08421 13.959C8.19392 13.769 8.35175 13.6112 8.54175 13.5015C8.83183 13.334 9.22125 13.334 10.0001 13.334C10.7789 13.334 11.1683 13.334 11.4584 13.5015C11.6484 13.6112 11.8062 13.769 11.9159 13.959C12.0834 14.2491 12.0834 14.6385 12.0834 15.4173V17.9173" stroke="#1D84C7" stroke-width="1.5" stroke-linecap="round"/>
</g>
</svg>
