<svg width="20" height="20" viewBox="0 0 20 20" fill="none" xmlns="http://www.w3.org/2000/svg">
<g id="Double Alt Arrow Right 1">
<path id="Vector" fill-rule="evenodd" clip-rule="evenodd" d="M8.76 3.69247C8.49792 3.91711 8.46759 4.31167 8.69225 4.57375L13.3436 10.0003L8.69225 15.4269C8.46759 15.689 8.49792 16.0836 8.76 16.3082C9.02209 16.5328 9.41667 16.5025 9.64125 16.2404L14.6413 10.4071C14.8419 10.173 14.8419 9.82766 14.6413 9.59358L9.64125 3.76026C9.41667 3.49818 9.02209 3.46783 8.76 3.69247Z" fill="#1D84C7"/>
<path id="Vector_2" d="M5.20825 4.16702C5.20825 3.90547 5.37111 3.67159 5.61641 3.58085C5.86171 3.4901 6.13758 3.5617 6.30779 3.76028L11.3078 9.59365C11.5084 9.82765 11.5084 10.1731 11.3078 10.4071L6.30779 16.2404C6.13758 16.439 5.86171 16.5106 5.61641 16.4199C5.37111 16.3291 5.20825 16.0952 5.20825 15.8336V4.16702Z" fill="#1D84C7"/>
</g>
</svg>
