<svg width="22" height="22" viewBox="0 0 22 22" fill="none" xmlns="http://www.w3.org/2000/svg">
<g id="Round Arrow Left Down 1">
<circle id="Ellipse 29" cx="10.9999" cy="11.0007" r="9.16667" fill="white"/>
<path id="Vector" fill-rule="evenodd" clip-rule="evenodd" d="M10.9999 1.83398C5.93731 1.83398 1.83325 5.93804 1.83325 11.0007C1.83325 16.0632 5.93731 20.1673 10.9999 20.1673C16.0625 20.1673 20.1666 16.0632 20.1666 11.0007C20.1666 5.93804 16.0625 1.83398 10.9999 1.83398ZM13.0624 13.7507C13.0624 14.1303 12.7546 14.4382 12.3749 14.4382H8.24992C7.87023 14.4382 7.56242 14.1303 7.56242 13.7507V9.62565C7.56242 9.24597 7.87023 8.93815 8.24992 8.93815C8.62961 8.93815 8.93742 9.24597 8.93742 9.62565V12.0908L13.2638 7.76452C13.5323 7.49603 13.9675 7.49603 14.236 7.76452C14.5045 8.033 14.5045 8.4683 14.236 8.73679L9.90973 13.0632H12.3749C12.7546 13.0632 13.0624 13.371 13.0624 13.7507Z" fill="#F59E20"/>
</g>
</svg>
