<svg width="22" height="22" viewBox="0 0 22 22" fill="none" xmlns="http://www.w3.org/2000/svg">
<circle cx="10.9999" cy="11.0007" r="9.16667" fill="white"/>
<path fill-rule="evenodd" clip-rule="evenodd" d="M10.9999 20.1673C16.0625 20.1673 20.1666 16.0632 20.1666 11.0007C20.1666 5.93804 16.0625 1.83398 10.9999 1.83398C5.93731 1.83398 1.83325 5.93804 1.83325 11.0007C1.83325 16.0632 5.93731 20.1673 10.9999 20.1673ZM8.93742 8.25065C8.93742 7.87096 9.24524 7.56315 9.62492 7.56315H13.7499C14.1296 7.56315 14.4374 7.87096 14.4374 8.25065V12.3757C14.4374 12.7553 14.1296 13.0632 13.7499 13.0632C13.3702 13.0632 13.0624 12.7553 13.0624 12.3757V9.91046L8.73605 14.2368C8.46757 14.5053 8.03227 14.5053 7.76378 14.2368C7.4953 13.9683 7.4953 13.533 7.76378 13.2645L12.0901 8.93815H9.62492C9.24524 8.93815 8.93742 8.63034 8.93742 8.25065Z" fill="#F59E20"/>
</svg>
