<svg width="18" height="18" viewBox="0 0 18 18" fill="none" xmlns="http://www.w3.org/2000/svg">
<g clip-path="url(#clip0_664_15435)">
<path d="M13.9768 11.7526L15.2641 7.8906C16.3887 4.51681 16.951 2.82991 16.0605 1.93946C15.1701 1.04902 13.4832 1.61131 10.1094 2.73591L6.2474 4.02324C3.52442 4.9309 2.16294 5.38473 1.77605 6.05023C1.40798 6.68334 1.40798 7.46527 1.77605 8.09835C2.16294 8.7639 3.52442 9.21772 6.2474 10.1254C6.68462 10.2711 6.90323 10.344 7.08595 10.4663C7.26303 10.5848 7.41515 10.737 7.53368 10.9141C7.656 11.0968 7.7289 11.3154 7.87463 11.7526C8.78228 14.4756 9.2361 15.8371 9.90165 16.2239C10.5347 16.592 11.3167 16.592 11.9498 16.2239C12.6153 15.8371 13.0691 14.4756 13.9768 11.7526Z" stroke="#F5F5F5" stroke-width="1.5"/>
<path d="M12.1589 6.63628C12.3797 6.41782 12.3817 6.06168 12.1632 5.84079C11.9448 5.61991 11.5886 5.61793 11.3678 5.83639L12.1589 6.63628ZM7.9971 10.7521L12.1589 6.63628L11.3678 5.83639L7.20605 9.95223L7.9971 10.7521Z" fill="#F5F5F5"/>
</g>
<defs>
<clipPath id="clip0_664_15435">
<rect width="18" height="18" fill="white"/>
</clipPath>
</defs>
</svg>
