<svg width="20" height="20" viewBox="0 0 20 20" fill="none" xmlns="http://www.w3.org/2000/svg">
<g id="Share1 2">
<path id="Vector" d="M7.50016 9.99935C7.50016 11.1499 6.56742 12.0827 5.41683 12.0827C4.26624 12.0827 3.3335 11.1499 3.3335 9.99935C3.3335 8.84877 4.26624 7.91602 5.41683 7.91602C6.56742 7.91602 7.50016 8.84877 7.50016 9.99935Z" stroke="#1D84C7" stroke-width="1.5"/>
<path id="Vector_2" d="M11.6667 5.41602L7.5 8.33268" stroke="#1D84C7" stroke-width="1.5" stroke-linecap="round"/>
<path id="Vector_3" d="M11.6667 14.5827L7.5 11.666" stroke="#1D84C7" stroke-width="1.5" stroke-linecap="round"/>
<path id="Vector_4" d="M15.8332 15.4173C15.8332 16.5679 14.9004 17.5007 13.7498 17.5007C12.5993 17.5007 11.6665 16.5679 11.6665 15.4173C11.6665 14.2667 12.5993 13.334 13.7498 13.334C14.9004 13.334 15.8332 14.2667 15.8332 15.4173Z" stroke="#1D84C7" stroke-width="1.5"/>
<path id="Vector_5" d="M15.8332 4.58333C15.8332 5.73392 14.9004 6.66667 13.7498 6.66667C12.5993 6.66667 11.6665 5.73392 11.6665 4.58333C11.6665 3.43274 12.5993 2.5 13.7498 2.5C14.9004 2.5 15.8332 3.43274 15.8332 4.58333Z" stroke="#1D84C7" stroke-width="1.5"/>
</g>
</svg>
