<svg xmlns="http://www.w3.org/2000/svg" width="14" height="14" viewBox="0 0 14 14" fill="none">
    <path fill-rule="evenodd" clip-rule="evenodd" d="M9.53125 1.51562C8.52162 1.51562 7.70312 2.3341 7.70312 3.34375C7.70312 3.45395 7.71286 3.56187 7.73159 3.66669L5.07057 5.52939C5.05705 5.53885 5.04426 5.54896 5.0322 5.55966C4.72184 5.3167 4.33095 5.17188 3.90625 5.17188C2.8966 5.17188 2.07812 5.99037 2.07812 7C2.07812 8.00963 2.8966 8.82812 3.90625 8.82812C4.33095 8.82812 4.72184 8.68328 5.0322 8.44034C5.04426 8.45103 5.05705 8.46115 5.07057 8.4706L7.73159 10.3333C7.71286 10.4381 7.70312 10.5461 7.70312 10.6562C7.70312 11.6659 8.52162 12.4844 9.53125 12.4844C10.5409 12.4844 11.3594 11.6659 11.3594 10.6562C11.3594 9.64662 10.5409 8.82812 9.53125 8.82812C8.93905 8.82812 8.41261 9.10971 8.07854 9.54627L5.55891 7.78249C5.67143 7.54529 5.73438 7.28001 5.73438 7C5.73438 6.71999 5.67143 6.45471 5.55891 6.21751L8.07854 4.45373C8.41261 4.8903 8.93905 5.17188 9.53125 5.17188C10.5409 5.17188 11.3594 4.3534 11.3594 3.34375C11.3594 2.3341 10.5409 1.51562 9.53125 1.51562ZM8.54688 3.34375C8.54688 2.80009 8.98759 2.35938 9.53125 2.35938C10.0749 2.35938 10.5156 2.80009 10.5156 3.34375C10.5156 3.88741 10.0749 4.32812 9.53125 4.32812C8.98759 4.32812 8.54688 3.88741 8.54688 3.34375ZM3.90625 6.01562C3.36259 6.01562 2.92188 6.45634 2.92188 7C2.92188 7.54366 3.36259 7.98438 3.90625 7.98438C4.44991 7.98438 4.89062 7.54366 4.89062 7C4.89062 6.45634 4.44991 6.01562 3.90625 6.01562ZM9.53125 9.67188C8.98759 9.67188 8.54688 10.1126 8.54688 10.6562C8.54688 11.1999 8.98759 11.6406 9.53125 11.6406C10.0749 11.6406 10.5156 11.1999 10.5156 10.6562C10.5156 10.1126 10.0749 9.67188 9.53125 9.67188Z" fill="white"/>
</svg>