<svg width="23" height="23" viewBox="0 0 23 23" fill="none" xmlns="http://www.w3.org/2000/svg">
<g id="Shop 2 1">
<path id="Vector" d="M15.3943 1.94238H7.00948C5.89576 1.94238 5.33891 1.94238 4.8914 2.21896C4.4439 2.49553 4.19486 2.9936 3.69679 3.98973L2.39715 7.27506C2.09688 8.0341 1.83416 8.92872 2.3396 9.5697C2.67869 9.9997 3.20433 10.2757 3.79446 10.2757C4.81721 10.2757 5.64631 9.44664 5.64631 8.42386C5.64631 9.44664 6.47542 10.2757 7.49817 10.2757C8.52092 10.2757 9.34999 9.44664 9.34999 8.42386C9.34999 9.44664 10.1792 10.2757 11.2018 10.2757C12.2246 10.2757 13.0537 9.44664 13.0537 8.42386C13.0537 9.44664 13.8829 10.2757 14.9055 10.2757C15.9283 10.2757 16.7574 9.44664 16.7574 8.42386C16.7574 9.44664 17.5866 10.2757 18.6092 10.2757C19.1994 10.2757 19.7251 9.9997 20.0642 9.5697C20.5696 8.92872 20.3069 8.0341 20.0067 7.27506L18.707 3.98973C18.209 2.9936 17.9599 2.49553 17.5124 2.21896C17.0649 1.94238 16.508 1.94238 15.3943 1.94238Z" fill="#1D84C7"/>
<path id="Vector_2" fill-rule="evenodd" clip-rule="evenodd" d="M18.6094 19.7667H20.4613C20.8448 19.7667 21.1557 20.0776 21.1557 20.4611C21.1557 20.8446 20.8448 21.1556 20.4613 21.1556H1.94274C1.55921 21.1556 1.24829 20.8446 1.24829 20.4611C1.24829 20.0776 1.55921 19.7667 1.94274 19.7667H3.79459V11.6648C4.48313 11.6648 5.12152 11.4501 5.64644 11.084C6.17137 11.4501 6.80975 11.6648 7.49829 11.6648C8.18684 11.6648 8.82523 11.4501 9.35014 11.084C9.87505 11.4501 10.5135 11.6648 11.202 11.6648C11.8905 11.6648 12.5289 11.4501 13.0538 11.084C13.5788 11.4501 14.2172 11.6648 14.9057 11.6648C15.5942 11.6648 16.2326 11.4501 16.7576 11.084C17.2825 11.4501 17.9209 11.6648 18.6094 11.6648V19.7667ZM8.88718 19.7667H13.5168V17.2204C13.5168 16.355 13.5168 15.9223 13.3307 15.6C13.2088 15.3889 13.0335 15.2135 12.8224 15.0917C12.5001 14.9056 12.0674 14.9056 11.202 14.9056C10.3366 14.9056 9.90394 14.9056 9.58162 15.0917C9.37051 15.2135 9.19515 15.3889 9.07325 15.6C8.88718 15.9223 8.88718 16.355 8.88718 17.2204V19.7667Z" fill="#1D84C7"/>
</g>
</svg>
