<svg width="32" height="32" viewBox="0 0 32 32" fill="none" xmlns="http://www.w3.org/2000/svg">
<g id="supplier 1">
<path id="Vector" d="M19 1H30V12H19V1Z" fill="#976947"/>
<path id="Vector_2" d="M19 1H28V10.5H19V1Z" fill="#C18E59"/>
<g id="Group">
<path id="Vector_3" d="M4 28.4994V30.9994H2V27.7344" fill="#976947"/>
<path id="Vector_4" d="M4 14V18.7855L2 19.5V14H4Z" fill="#976947"/>
<path id="Vector_5" d="M17 29V31H5V29H7V26H5V21H17V26H15V29H17Z" fill="#976947"/>
</g>
<path id="Vector_6" d="M15 29V26H13.5C13.1022 26 12.7206 26.158 12.4393 26.4393C12.158 26.7206 12 27.1022 12 27.5C12 27.8978 12.158 28.2794 12.4393 28.5607C12.7206 28.842 13.1022 29 13.5 29H15Z" fill="#FBE1CA"/>
<path id="Vector_7" d="M15 29V26H17V21H5V26H7V29H4C3.20435 29 2.44129 28.6839 1.87868 28.1213C1.31607 27.5587 1 26.7956 1 26V20.6755C1.00001 19.9229 1.29892 19.2012 1.831 18.669C2.26521 18.2347 2.82856 17.9529 3.4365 17.866L9.5 17V17.5C9.94413 17.7963 10.4661 17.9545 11 17.9545C11.5339 17.9545 12.0559 17.7963 12.5 17.5V17L18.5635 17.866C19.1714 17.9529 19.7348 18.2347 20.169 18.669C20.7011 19.2012 21 19.9229 21 20.6755V26C21 26.7956 20.6839 27.5587 20.1213 28.1213C19.5587 28.6839 18.7956 29 18 29H15Z" fill="#1D84C7"/>
<path id="Vector_8" d="M27.9998 28H20.2358C20.7286 27.4505 21.0007 26.7381 20.9998 26H27.9998V28Z" fill="#674025"/>
<path id="Vector_9" d="M1 12H31V14H1V12Z" fill="#674025"/>
<path id="Vector_10" d="M2.5 1H13.5V12H2.5V1Z" fill="#976947"/>
<path id="Vector_11" d="M6.5 1V5.256C6.83691 4.84671 7.24558 4.50225 7.706 4.2395C8.2625 3.92169 8.86924 3.70135 9.5 3.588V1H6.5Z" fill="#F0AE42"/>
<path id="Vector_12" d="M15 11.5449V9.45342C14.9999 8.86117 14.8246 8.28218 14.496 7.78942L14 7.04492L13.3335 7.54492C12.468 8.19403 11.4154 8.54492 10.3335 8.54492H9C8.46957 8.54492 7.96086 8.75564 7.58579 9.13071C7.21071 9.50578 7 10.0145 7 10.5449V11.5449C7 12.6058 7.42143 13.6232 8.17157 14.3733C8.92172 15.1235 9.93913 15.5449 11 15.5449C12.0609 15.5449 13.0783 15.1235 13.8284 14.3733C14.5786 13.6232 15 12.6058 15 11.5449Z" fill="#FBE1CA"/>
<path id="Vector_13" d="M15 11.5454V9.45388C14.9999 8.86162 14.8246 8.28263 14.496 7.78988L14 7.04538L13.3335 7.54538C12.468 8.19449 11.4154 8.54538 10.3335 8.54538H9C8.46957 8.54538 7.96086 8.75609 7.58579 9.13116C7.21071 9.50624 7 10.0149 7 10.5454V11.5454L6.3755 10.7129C5.80711 9.9552 5.49989 9.03355 5.5 8.08638C5.50032 7.31478 5.70451 6.55697 6.09189 5.88966C6.47928 5.22236 7.03611 4.66927 7.706 4.28638C8.55401 3.80179 9.5138 3.54689 10.4905 3.54688H11.5095C12.4861 3.54644 13.4458 3.80082 14.294 4.28488C14.9641 4.66789 15.5211 5.22123 15.9085 5.88881C16.2959 6.5564 16.4999 7.31453 16.5 8.08638C16.5001 9.03355 16.1929 9.9552 15.6245 10.7129L15 11.5454Z" fill="#78452F"/>
<path id="Vector_14" d="M12.5 15.2559V17.5464C12.0559 17.8427 11.5339 18.0009 11 18.0009C10.4661 18.0009 9.94413 17.8427 9.5 17.5464V15.2559C9.9766 15.4485 10.4859 15.5471 11 15.5464C11.5141 15.5471 12.0234 15.4485 12.5 15.2559Z" fill="#F4D0B5"/>
<path id="Vector_15" d="M9.5 21V24H12.5V21" fill="#F0AE42"/>
<path id="Vector_16" d="M9.5 21H11.5V23H9.5V21Z" fill="#F9D266"/>
<path id="Vector_17" d="M7 26H8.5C8.89782 26 9.27936 26.158 9.56066 26.4393C9.84196 26.7206 10 27.1022 10 27.5C10 27.8978 9.84196 28.2794 9.56066 28.5607C9.27936 28.842 8.89782 29 8.5 29H7" fill="#FBE1CA"/>
<path id="Vector_18" d="M23 1V5H26V1" fill="#F0AE42"/>
<path id="Vector_19" d="M25.5 9.5H28.5V10.5H25.5V9.5Z" fill="#674025"/>
<path id="Vector_20" d="M30 14V31H28V14" fill="#976947"/>
<path id="Vector_21" d="M23 1H24.5V3.8075H23V1Z" fill="#F9D266"/>
<path id="Vector_22" d="M6.5 1H8V3.5455H6.5V1Z" fill="#F9D266"/>
</g>
</svg>
