<svg width="22" height="27" viewBox="0 0 22 27" fill="none" xmlns="http://www.w3.org/2000/svg">
<path id="Vector" d="M13.2094 2.00436C11.975 0.998549 10.025 0.998549 8.79062 2.00436L2.24516 7.33769C1.60704 7.85764 1.25 8.5762 1.25 9.33334C1.25 10.0905 1.60704 10.809 2.24516 11.329C3.47957 12.3348 5.42952 12.3348 6.66393 11.329L7.79545 10.407L7.79546 23C7.79546 24.655 9.38105 25.75 11 25.75C12.619 25.75 14.2045 24.655 14.2045 23L14.2045 10.407L15.3361 11.329C16.5705 12.3348 18.5204 12.3348 19.7548 11.329C20.393 10.809 20.75 10.0905 20.75 9.33333C20.75 8.5762 20.393 7.85764 19.7548 7.33769L13.2094 2.00436Z" fill="#F59E20" stroke="white" stroke-width="1.5"/>
</svg>
