<svg width="20" height="20" viewBox="0 0 20 20" fill="none" xmlns="http://www.w3.org/2000/svg">
<g id="view 1">
<path id="Vector" d="M2.72891 12.7471C2.02064 11.8269 1.6665 11.3668 1.6665 10.0007C1.6665 8.63448 2.02064 8.17443 2.72891 7.25426C4.14314 5.41695 6.51493 3.33398 9.99984 3.33398C13.4848 3.33398 15.8565 5.41695 17.2708 7.25426C17.979 8.17443 18.3332 8.63448 18.3332 10.0007C18.3332 11.3668 17.979 11.8269 17.2708 12.7471C15.8565 14.5843 13.4848 16.6673 9.99984 16.6673C6.51493 16.6673 4.14314 14.5843 2.72891 12.7471Z" stroke="#1D84C7" stroke-width="1.5"/>
<path id="Vector_2" d="M12.5 10C12.5 11.3807 11.3807 12.5 10 12.5C8.61925 12.5 7.5 11.3807 7.5 10C7.5 8.61925 8.61925 7.5 10 7.5C11.3807 7.5 12.5 8.61925 12.5 10Z" stroke="#1D84C7" stroke-width="1.5"/>
</g>
</svg>
