<svg width="42" height="42" viewBox="0 0 42 42" fill="none" xmlns="http://www.w3.org/2000/svg">
<g id="Wallet 2 1" clip-path="url(#clip0_247_15891)">
<path id="Vector" opacity="0.35" fill-rule="evenodd" clip-rule="evenodd" d="M37.0795 14.0066C36.9706 13.9999 36.852 14 36.7289 14L36.6983 14H31.8758C27.9009 14 24.4998 17.0381 24.4998 21C24.4998 24.9618 27.9009 28 31.8758 28H36.6983H36.7289C36.852 28 36.9706 28 37.0795 27.9934C38.694 27.8945 40.122 26.6676 40.2421 24.954C40.2499 24.8416 40.2498 24.7205 40.2498 24.6083V24.5777V17.4222V17.3918C40.2498 17.2795 40.2499 17.1584 40.2421 17.046C40.122 15.3324 38.694 14.1056 37.0795 14.0066ZM31.4483 22.8667C32.4717 22.8667 33.3012 22.0309 33.3012 21C33.3012 19.9691 32.4717 19.1333 31.4483 19.1333C30.4249 19.1333 29.5954 19.9691 29.5954 21C29.5954 22.0309 30.4249 22.8667 31.4483 22.8667Z" fill="#001A2B"/>
<path id="Vector_2" opacity="0.15" d="M36.9937 14.0027C36.9937 11.9366 36.9186 9.72032 35.5979 8.13152C35.4703 7.97815 35.3347 7.82922 35.1902 7.68467C33.8805 6.37504 32.2197 5.79383 30.168 5.518C28.1744 5.24995 25.6271 5.24998 22.411 5.25H18.7136C15.4975 5.24998 12.9501 5.24995 10.9565 5.518C8.90474 5.79383 7.24407 6.37504 5.93443 7.68467C4.6248 8.99432 4.04359 10.655 3.76775 12.7067C3.4997 14.7003 3.49974 17.2477 3.49976 20.4638V20.6612C3.49974 23.8774 3.4997 26.4247 3.76775 28.4183C4.04359 30.47 4.6248 32.1307 5.93443 33.4404C7.24407 34.7499 8.90474 35.3311 10.9565 35.6071C12.9501 35.875 15.4974 35.875 18.7134 35.875H22.411C25.6271 35.875 28.1744 35.875 30.168 35.6071C32.2197 35.3311 33.8805 34.7499 35.1902 33.4404C35.548 33.0824 35.852 32.6977 36.1103 32.2851C36.8987 31.0259 36.9937 29.4828 36.9937 27.9974C36.9094 28 36.8205 28 36.7291 28H31.8758C27.9009 28 24.4998 24.9618 24.4998 21C24.4998 17.0381 27.9009 14 31.8758 14H36.7289C36.8203 14 36.9094 13.9999 36.9937 14.0027Z" fill="#001A2B"/>
<path id="Vector_3" d="M4.43472 33.9297C5.47997 34.824 7.11954 34.824 8.16479 33.9297L12.7466 30.0097C13.8841 29.0365 13.8841 27.3843 12.7466 26.4111C11.7018 25.5172 10.0632 25.5168 9.01794 26.4099V20.3704C9.01794 18.8656 7.64894 17.9004 6.29975 17.9004C4.95057 17.9004 3.58157 18.8656 3.58157 20.3704V26.4099C2.53626 25.5168 0.897686 25.5172 -0.147096 26.4111L0.503 27.1709L-0.147096 26.4111C-1.28463 27.3843 -1.28463 29.0365 -0.147096 30.0097L4.43472 33.9297Z" fill="#1D84C7" stroke="white" stroke-width="2"/>
</g>
<defs>
<clipPath id="clip0_247_15891">
<rect width="42" height="42" fill="white" transform="translate(-0.000244141)"/>
</clipPath>
</defs>
</svg>
