<svg width="20" height="20" viewBox="0 0 20 20" fill="none" xmlns="http://www.w3.org/2000/svg">
<g id="Wallet Money line">
<path id="Vector" d="M5 8.33398H8.33333" stroke="#1D84C7" stroke-width="1.5" stroke-linecap="round" stroke-linejoin="round"/>
<path id="Vector_2" d="M17.3611 9.16602H15.1923C13.7054 9.16602 12.5 10.2853 12.5 11.666C12.5 13.0468 13.7054 14.166 15.1923 14.166H17.3611C17.4306 14.166 17.4653 14.166 17.4946 14.1643C17.944 14.1368 18.3019 13.8045 18.3314 13.3872C18.3333 13.3599 18.3333 13.3277 18.3333 13.2633V10.0688C18.3333 10.0043 18.3333 9.9721 18.3314 9.94485C18.3019 9.52752 17.944 9.19518 17.4946 9.16777C17.4653 9.16602 17.4306 9.16602 17.3611 9.16602Z" stroke="#1D84C7" stroke-width="1.5"/>
<path id="Vector_3" d="M17.4709 9.16667C17.4062 7.60642 17.1972 6.64979 16.5237 5.97631C15.5475 5 13.9761 5 10.8334 5H8.33341C5.19071 5 3.61937 5 2.64306 5.97631C1.66675 6.95262 1.66675 8.524 1.66675 11.6667C1.66675 14.8093 1.66675 16.3807 2.64306 17.357C3.61937 18.3333 5.19071 18.3333 8.33341 18.3333H10.8334C13.9761 18.3333 15.5475 18.3333 16.5237 17.357C17.1972 16.6836 17.4062 15.7269 17.4709 14.1667" stroke="#1D84C7" stroke-width="1.5"/>
<path id="Vector_4" d="M5 5L8.11291 2.93594C8.9895 2.35469 10.1772 2.35469 11.0538 2.93594L14.1667 5" stroke="#1D84C7" stroke-width="1.5" stroke-linecap="round"/>
<path id="Vector_5" d="M14.9927 11.666H15.0002" stroke="#1D84C7" stroke-width="2" stroke-linecap="round" stroke-linejoin="round"/>
</g>
</svg>
