<svg width="20" height="20" viewBox="0 0 20 20" fill="none" xmlns="http://www.w3.org/2000/svg">
<g id="whatsapp 1" clip-path="url(#clip0_247_20479)">
<g id="WA_Logo">
<g id="Group">
<path id="Vector" fill-rule="evenodd" clip-rule="evenodd" d="M17.0526 2.90667C15.1809 1.03333 12.6926 0.000833333 10.0418 0C4.57927 0 0.133441 4.445 0.130941 9.91C0.130107 11.6567 0.586774 13.3617 1.45427 14.865L0.0476074 20L5.30094 18.6217C6.74844 19.4117 8.37844 19.8275 10.0368 19.8283H10.0409C15.5026 19.8283 19.9493 15.3825 19.9518 9.9175C19.9534 7.27 18.9234 4.77917 17.0526 2.90667ZM10.0418 18.1542H10.0384C8.56011 18.1542 7.11094 17.7567 5.84594 17.0058L5.54511 16.8275L2.42761 17.645L3.26011 14.605L3.06427 14.2933C2.23927 12.9817 1.80427 11.4658 1.80511 9.91C1.80677 5.36833 5.50261 1.67333 10.0459 1.67333C12.2459 1.67333 14.3143 2.53167 15.8693 4.08833C17.4243 5.64583 18.2801 7.715 18.2793 9.91583C18.2768 14.4592 14.5818 18.1542 10.0418 18.1542ZM14.5601 11.985C14.3126 11.8608 13.0951 11.2617 12.8676 11.1792C12.6409 11.0967 12.4759 11.055 12.3101 11.3025C12.1443 11.55 11.6709 12.1083 11.5259 12.2742C11.3818 12.4392 11.2368 12.46 10.9893 12.3358C10.7418 12.2117 9.94344 11.9508 8.99761 11.1067C8.26177 10.45 7.76427 9.63917 7.62011 9.39083C7.47594 9.1425 7.60511 9.00917 7.72844 8.88583C7.84011 8.775 7.97594 8.59667 8.10011 8.45167C8.22511 8.30833 8.26594 8.205 8.34927 8.03917C8.43177 7.87417 8.39094 7.72917 8.32844 7.605C8.26594 7.48167 7.77094 6.2625 7.56511 5.76667C7.36427 5.28333 7.16011 5.34917 7.00761 5.34167C6.86344 5.33417 6.69844 5.33333 6.53261 5.33333C6.36761 5.33333 6.09927 5.395 5.87261 5.64333C5.64594 5.89167 5.00594 6.49083 5.00594 7.70917C5.00594 8.92833 5.89344 10.1058 6.01677 10.2708C6.14011 10.4358 7.76261 12.9375 10.2468 14.01C10.8376 14.265 11.2993 14.4175 11.6584 14.5317C12.2518 14.72 12.7918 14.6933 13.2184 14.63C13.6943 14.5592 14.6834 14.0308 14.8901 13.4525C15.0968 12.8742 15.0968 12.3775 15.0343 12.275C14.9726 12.1708 14.8076 12.1092 14.5601 11.985Z" fill="#F9F9F9"/>
</g>
</g>
</g>
<defs>
<clipPath id="clip0_247_20479">
<rect width="20" height="20" fill="white"/>
</clipPath>
</defs>
</svg>
